<svg xmlns="http://www.w3.org/2000/svg" xmlns:xlink="http://www.w3.org/1999/xlink" width="1024" zoomAndPan="magnify" viewBox="0 0 768 337.499995" height="450" preserveAspectRatio="xMidYMid meet" version="1.0"><defs><g/><clipPath id="671d745686"><path d="M 531.222656 68 L 634 68 L 634 170 L 531.222656 170 Z M 531.222656 68 " clip-rule="nonzero"/></clipPath><clipPath id="ac8301e4e5"><path d="M 605 61.363281 L 719 61.363281 L 719 143 L 605 143 Z M 605 61.363281 " clip-rule="nonzero"/></clipPath><clipPath id="4c05f97351"><path d="M 625.390625 143.515625 L 726.460938 143.515625 L 726.460938 256.542969 L 625.390625 256.542969 Z M 625.390625 143.515625 " clip-rule="nonzero"/></clipPath><clipPath id="ae6d297a53"><path d="M 396.527344 101 L 431.984375 101 L 431.984375 136.457031 L 396.527344 136.457031 Z M 396.527344 101 " clip-rule="nonzero"/></clipPath><clipPath id="9cd2ed0d81"><path d="M 414.253906 136.242188 C 397.058594 124.460938 396.101562 116.816406 398.011719 112.359375 C 399.925781 107.898438 405.976562 102.804688 410.433594 101.527344 C 415.210938 100.574219 422.855469 102.804688 426.359375 105.988281 C 429.863281 109.492188 432.410156 116.816406 431.453125 121.59375 C 430.816406 126.371094 426.039062 132.742188 421.582031 134.652344 C 417.121094 136.5625 409.480469 136.242188 405.339844 133.695312 C 401.199219 131.148438 397.375 124.140625 396.738281 119.683594 C 396.421875 115.859375 397.375 111.71875 399.925781 108.855469 C 402.789062 105.351562 409.796875 101.527344 414.253906 101.210938 C 418.394531 100.890625 423.171875 102.804688 426.039062 105.667969 C 429.222656 108.855469 432.089844 116.179688 431.773438 120.636719 C 431.773438 124.777344 428.90625 129.238281 426.039062 131.785156 C 423.171875 134.332031 414.574219 136.242188 414.574219 136.242188 " clip-rule="nonzero"/></clipPath><clipPath id="02a133d98d"><path d="M 289 167.554688 L 314.484375 167.554688 L 314.484375 198.082031 L 289 198.082031 Z M 289 167.554688 " clip-rule="nonzero"/></clipPath><clipPath id="9a35ad6a4c"><path d="M 313.84375 181.800781 C 310.726562 192.285156 308.460938 194.410156 306.335938 194.835938 C 304.351562 195.261719 300.953125 193.984375 299.394531 192.851562 C 298.402344 192.144531 297.835938 191.011719 297.410156 189.734375 C 296.984375 188.175781 296.5625 185.484375 297.550781 184.210938 C 298.96875 182.511719 305.910156 180.8125 307.183594 182.085938 C 308.460938 183.359375 305.769531 190.300781 304.070312 192.992188 C 302.792969 195.261719 300.667969 197.386719 298.542969 197.808594 C 296.5625 198.375 293.160156 197.386719 291.601562 195.96875 C 289.902344 194.550781 289.054688 191.152344 289.195312 189.027344 C 289.195312 187.46875 290.1875 185.769531 291.460938 184.636719 C 293.019531 183.359375 296.277344 182.226562 298.402344 182.652344 C 300.527344 183.078125 303.21875 185.34375 304.070312 187.328125 C 304.917969 189.3125 304.351562 192.851562 303.359375 194.550781 C 302.511719 195.96875 300.953125 197.101562 299.394531 197.667969 C 297.976562 198.09375 295.992188 198.234375 294.4375 197.667969 C 292.59375 196.820312 290.042969 194.269531 289.335938 192.425781 C 288.769531 190.867188 289.195312 189.453125 289.621094 187.46875 C 290.1875 184.351562 292.3125 179.394531 293.871094 176.136719 C 295.144531 173.585938 295.992188 170.753906 297.976562 169.476562 C 300.101562 168.0625 303.925781 167.210938 306.476562 167.921875 C 308.886719 168.769531 311.292969 171.746094 312.566406 174.152344 C 313.984375 176.5625 314.691406 179.394531 314.410156 182.226562 C 313.984375 185.769531 311.859375 191.292969 309.734375 193.277344 C 308.320312 194.550781 306.195312 195.117188 304.492188 194.976562 C 302.792969 194.976562 300.667969 194.128906 299.394531 192.851562 C 297.976562 191.4375 297.269531 188.460938 297.128906 186.050781 C 296.984375 183.359375 297.976562 179.820312 298.828125 177.835938 C 299.535156 176.417969 300.101562 175.570312 301.09375 174.71875 C 301.945312 174.011719 303.078125 173.304688 304.351562 173.160156 C 305.910156 172.878906 308.320312 173.160156 309.875 173.871094 C 311.433594 174.71875 312.851562 176.703125 313.417969 178.121094 C 313.984375 179.394531 313.84375 181.800781 313.84375 181.800781 " clip-rule="nonzero"/></clipPath><clipPath id="5dd3705945"><path d="M 197.390625 168 L 230.925781 168 L 230.925781 198.105469 L 197.390625 198.105469 Z M 197.390625 168 " clip-rule="nonzero"/></clipPath><clipPath id="d4cf9d3152"><path d="M 208.761719 168.03125 C 226.554688 173.246094 229.550781 177.222656 230.351562 180.453125 C 231.152344 183.183594 230.949219 186.664062 230.152344 189.148438 C 229.152344 191.632812 227.550781 194.613281 225.554688 195.855469 C 222.953125 197.34375 217.957031 198.089844 215.160156 196.601562 C 212.558594 194.859375 209.5625 189.890625 208.960938 186.414062 C 208.5625 182.6875 210.160156 176.726562 212.359375 174.242188 C 214.558594 171.507812 219.15625 170.015625 222.15625 170.761719 C 225.152344 171.507812 228.953125 175.484375 230.152344 178.960938 C 231.152344 182.4375 230.550781 188.648438 228.953125 191.632812 C 227.152344 194.859375 223.355469 197.097656 219.757812 197.84375 C 215.558594 198.585938 208.960938 197.34375 205.164062 194.859375 C 201.964844 192.875 198.765625 189.644531 197.765625 185.917969 C 196.964844 182.4375 197.765625 176.476562 199.566406 173.496094 C 201.363281 170.515625 208.761719 168.03125 208.761719 168.03125 " clip-rule="nonzero"/></clipPath><clipPath id="8bbe19841f"><path d="M 116.402344 168.457031 L 159.929688 168.457031 L 159.929688 213.28125 L 116.402344 213.28125 Z M 116.402344 168.457031 " clip-rule="nonzero"/></clipPath><clipPath id="aa222098db"><path d="M 159.917969 184.457031 C 159.917969 198.332031 158.25 201.941406 156.308594 204.714844 C 154.089844 207.214844 151.035156 209.710938 147.707031 211.097656 C 144.652344 212.488281 140.765625 213.320312 137.4375 213.042969 C 133.828125 212.765625 130.222656 211.65625 127.167969 209.988281 C 124.394531 208.046875 121.617188 205.273438 119.675781 202.496094 C 118.007812 199.445312 116.898438 195.835938 116.621094 192.226562 C 116.34375 188.898438 117.175781 185.011719 118.566406 181.679688 C 119.953125 178.628906 122.449219 175.574219 124.949219 173.355469 C 127.722656 171.414062 131.332031 169.746094 134.660156 169.191406 C 137.992188 168.359375 142.15625 168.636719 145.207031 169.746094 C 148.539062 170.859375 154.367188 175.296875 154.367188 175.296875 " clip-rule="nonzero"/></clipPath><clipPath id="a451410082"><path d="M 119.730469 165.992188 L 157.628906 165.992188 L 157.628906 207.773438 L 119.730469 207.773438 Z M 119.730469 165.992188 " clip-rule="nonzero"/></clipPath><clipPath id="74f54bcce1"><path d="M 391.1875 109 L 419.9375 109 L 419.9375 138.585938 L 391.1875 138.585938 Z M 391.1875 109 " clip-rule="nonzero"/></clipPath><clipPath id="87b1d56273"><path d="M 419.925781 119.546875 C 419.925781 128.714844 418.828125 131.097656 417.542969 132.929688 C 416.078125 134.578125 414.0625 136.230469 411.859375 137.144531 C 409.84375 138.0625 407.277344 138.613281 405.078125 138.429688 C 402.695312 138.246094 400.3125 137.511719 398.296875 136.410156 C 396.464844 135.128906 394.632812 133.296875 393.347656 131.464844 C 392.25 129.445312 391.515625 127.0625 391.332031 124.679688 C 391.148438 122.480469 391.699219 119.914062 392.613281 117.714844 C 393.53125 115.699219 395.179688 113.683594 396.832031 112.214844 C 398.664062 110.933594 401.046875 109.832031 403.246094 109.46875 C 405.445312 108.917969 408.195312 109.101562 410.210938 109.832031 C 412.410156 110.566406 416.261719 113.5 416.261719 113.5 " clip-rule="nonzero"/></clipPath><clipPath id="3cef9bc9c2"><path d="M 268.238281 168.457031 L 311.765625 168.457031 L 311.765625 213.28125 L 268.238281 213.28125 Z M 268.238281 168.457031 " clip-rule="nonzero"/></clipPath><clipPath id="a40123e108"><path d="M 311.75 184.457031 C 311.75 198.332031 310.085938 201.941406 308.144531 204.714844 C 305.921875 207.214844 302.871094 209.710938 299.539062 211.097656 C 296.488281 212.488281 292.601562 213.320312 289.273438 213.042969 C 285.664062 212.765625 282.054688 211.65625 279.003906 209.988281 C 276.226562 208.046875 273.453125 205.273438 271.511719 202.496094 C 269.84375 199.445312 268.734375 195.835938 268.457031 192.226562 C 268.179688 188.898438 269.011719 185.011719 270.398438 181.679688 C 271.789062 178.628906 274.285156 175.574219 276.78125 173.355469 C 279.558594 171.414062 283.164062 169.746094 286.496094 169.191406 C 289.828125 168.359375 293.988281 168.636719 297.042969 169.746094 C 300.371094 170.859375 306.199219 175.296875 306.199219 175.296875 " clip-rule="nonzero"/></clipPath><clipPath id="49f2d49e18"><path d="M 271.566406 165.992188 L 309.464844 165.992188 L 309.464844 207.773438 L 271.566406 207.773438 Z M 271.566406 165.992188 " clip-rule="nonzero"/></clipPath></defs><g clip-path="url(#671d745686)"><path fill="#ffc24b" d="M 597.246094 71.859375 C 596.40625 70.804688 596.507812 69.785156 597.128906 68.867188 C 588.8125 70.648438 581.453125 73.28125 579.515625 77 C 578.207031 79.503906 578.019531 82.441406 576.152344 84.09375 C 571.230469 88.445312 571.054688 83.316406 564.851562 91.796875 C 552.347656 108.886719 560.671875 108.195312 554.425781 118.792969 C 553.054688 121.117188 553.367188 122.097656 553.242188 122.890625 C 553.117188 123.6875 552.617188 126.804688 553.492188 128.824219 C 554.363281 130.84375 559.125 133.929688 559.996094 135.582031 C 560.867188 137.230469 561.117188 140.046875 562.238281 141.941406 C 563.359375 143.835938 569.550781 148.148438 570.671875 149.125 C 574.578125 152.535156 589.03125 151.4375 592.851562 150.304688 C 597.722656 148.855469 605.609375 144.210938 609.414062 149.8125 C 610.40625 151.28125 611.34375 153.175781 614.207031 152.992188 C 617.070312 152.8125 618.003906 152.566406 619.496094 152.6875 C 625.257812 153.160156 618.855469 161.0625 621.636719 169.457031 C 622.910156 169.546875 624.253906 169.523438 625.546875 169.542969 C 636.4375 169.695312 634.253906 156.058594 631.234375 150.589844 C 628.152344 145.007812 602.484375 139.945312 595.375 139.945312 C 560.855469 139.945312 576.824219 133.929688 568.644531 123.578125 C 562.867188 116.265625 576.609375 103.476562 576.21875 99.054688 C 574.960938 84.699219 606.140625 83.070312 597.246094 71.859375 Z M 541.746094 119.839844 C 547.554688 119.839844 552.265625 124.46875 552.265625 130.175781 C 552.265625 135.882812 547.554688 140.511719 541.746094 140.511719 C 535.933594 140.511719 531.222656 135.882812 531.222656 130.175781 C 531.222656 124.46875 535.933594 119.839844 541.746094 119.839844 " fill-opacity="1" fill-rule="evenodd"/></g><g clip-path="url(#ac8301e4e5)"><path fill="#fe5836" d="M 642.335938 95.785156 C 651.53125 103.25 657.28125 81.339844 673.34375 120.09375 C 677.199219 129.398438 692.832031 136.019531 701.234375 139.941406 C 712.214844 145.066406 716.699219 141.320312 718.316406 134.574219 C 716.828125 134.933594 715.386719 135.214844 714.53125 135.183594 C 712.585938 135.105469 712.203125 134.074219 711.691406 133.507812 C 703.121094 124.074219 688.175781 103.414062 683.417969 92.023438 C 682.421875 89.640625 683.914062 90.191406 684.601562 88.96875 C 685.285156 87.746094 684.941406 85.664062 683.695312 83.21875 C 681.539062 78.980469 666.4375 81.164062 662.757812 80.839844 C 658.289062 80.449219 654.242188 74.539062 649.792969 79.023438 C 648.578125 80.246094 649.652344 81.773438 649.621094 82.691406 C 649.550781 84.78125 629.992188 76.347656 629.988281 76.339844 C 621.621094 67.15625 635.464844 72.703125 626.050781 65.867188 C 625.578125 65.527344 617.925781 65.769531 608.929688 66.90625 C 605.699219 72.628906 600.625 79.554688 620.636719 86.421875 C 629.339844 89.40625 633.207031 88.375 642.335938 95.785156 Z M 689.214844 61.425781 C 695.023438 61.425781 699.734375 66.054688 699.734375 71.761719 C 699.734375 77.46875 695.023438 82.09375 689.214844 82.09375 C 683.402344 82.09375 678.695312 77.46875 678.695312 71.761719 C 678.695312 66.054688 683.402344 61.425781 689.214844 61.425781 " fill-opacity="1" fill-rule="evenodd"/></g><g clip-path="url(#4c05f97351)"><path fill="#2c83f5" d="M 633.113281 195.082031 C 633.023438 196.242188 631.355469 198.550781 630.175781 199.773438 C 628.992188 200.996094 629.550781 201.824219 629.613281 202.863281 C 629.675781 203.902344 628.679688 204.910156 628.148438 206.257812 C 627.621094 207.601562 627.917969 211.773438 628.570312 214.128906 C 629.226562 216.484375 634.25 222.402344 634.90625 223.378906 C 635.558594 224.355469 635.683594 225.734375 635.683594 227.167969 C 635.683594 228.609375 636.414062 231.007812 636.972656 233.667969 C 637.535156 236.328125 639.636719 238.542969 641.347656 240.625 C 643.058594 242.703125 643.199219 244.09375 643.667969 244.890625 C 644.132812 245.683594 645.160156 248.773438 645.160156 250.085938 C 645.160156 251.402344 645.363281 251.964844 645.800781 253.191406 C 646.234375 254.414062 649.101562 256.21875 650.4375 256.429688 C 656.683594 257.429688 670.539062 251.488281 675.050781 246.257812 C 675.828125 245.355469 679.527344 241.570312 681.738281 237.871094 C 683.945312 234.171875 682.625 234.921875 682.625 233.453125 C 682.625 231.984375 683.558594 232.261719 684.648438 231.742188 C 685.738281 231.222656 688.492188 229.25 689.238281 227.351562 C 689.984375 225.457031 689.238281 223.625 688.679688 221.359375 C 688.117188 219.097656 691.105469 216.222656 692.847656 214.144531 C 694.59375 212.066406 698.761719 211.085938 701.441406 209.621094 C 704.117188 208.152344 704.710938 205.125 704.648438 203.597656 C 704.585938 202.066406 704.023438 200.171875 704.148438 196.867188 C 704.273438 193.566406 703.027344 192.894531 702.21875 190.082031 C 701.410156 187.269531 700.941406 181.671875 701.316406 179.226562 C 701.691406 176.78125 703.183594 175.066406 705.734375 171.398438 C 708.289062 167.730469 715.292969 161.523438 718.902344 157.976562 C 721.523438 155.402344 724.457031 152.007812 726.460938 148.726562 C 722.042969 137.527344 703.054688 147.921875 701.542969 150.769531 C 697.730469 157.953125 694.257812 171.871094 694.257812 179.996094 C 694.257812 184.410156 693.597656 187.34375 693.488281 190.152344 C 693.078125 200.761719 680.941406 203.546875 678.15625 208.457031 C 672.542969 218.339844 673.835938 215.257812 673.835938 227.855469 C 673.835938 232.066406 671.152344 241.339844 665.703125 241.722656 C 648.449219 242.929688 653.535156 229.585938 649 226.429688 C 642.910156 222.191406 640.539062 200.996094 642.148438 194.128906 C 643.335938 189.054688 641.402344 173.558594 634.804688 173.191406 C 629.332031 172.882812 626.929688 174.066406 625.527344 176.285156 C 627.296875 179.121094 629.679688 183.042969 630.050781 183.84375 C 630.609375 185.066406 631.199219 186.78125 630.921875 187.695312 C 630.640625 188.613281 630.46875 189.914062 631.183594 191.105469 C 631.902344 192.300781 633.210938 193.917969 633.113281 195.082031 Z M 703.90625 218.15625 C 709.71875 218.15625 714.425781 222.785156 714.425781 228.492188 C 714.425781 234.199219 709.71875 238.828125 703.90625 238.828125 C 698.097656 238.828125 693.386719 234.199219 693.386719 228.492188 C 693.386719 222.785156 698.097656 218.15625 703.90625 218.15625 " fill-opacity="1" fill-rule="evenodd"/></g><g fill="#000000" fill-opacity="1"><g transform="translate(309.084254, 286.226176)"><g><path d="M 29.640625 -36.546875 L 29.640625 -29.59375 L 11.921875 -29.59375 L 11.921875 -21.796875 L 27.609375 -21.796875 L 27.609375 -14.84375 L 11.921875 -14.84375 L 11.921875 -6.953125 L 30.34375 -6.953125 L 30.34375 0 L 4.71875 0 L 4.71875 -36.546875 Z M 29.640625 -36.546875 "/></g></g></g><g fill="#000000" fill-opacity="1"><g transform="translate(342.151666, 286.226176)"><g><path d="M 11.921875 -36.546875 L 11.921875 -6.953125 L 29.09375 -6.953125 L 29.09375 0 L 4.71875 0 L 4.71875 -36.546875 Z M 11.921875 -36.546875 "/></g></g></g><g fill="#000000" fill-opacity="1"><g transform="translate(373.977814, 286.226176)"><g><path d="M 29.640625 -36.546875 L 29.640625 -29.59375 L 11.921875 -29.59375 L 11.921875 -21.796875 L 27.609375 -21.796875 L 27.609375 -14.84375 L 11.921875 -14.84375 L 11.921875 -6.953125 L 30.34375 -6.953125 L 30.34375 0 L 4.71875 0 L 4.71875 -36.546875 Z M 29.640625 -36.546875 "/></g></g></g><g fill="#000000" fill-opacity="1"><g transform="translate(407.045226, 286.226176)"><g><path d="M 32.125 -3.03125 C 31.195312 -2.269531 29.722656 -1.507812 27.703125 -0.75 C 25.679688 0.0078125 23.484375 0.390625 21.109375 0.390625 C 17.296875 0.390625 13.984375 -0.429688 11.171875 -2.078125 C 8.359375 -3.734375 6.207031 -5.957031 4.71875 -8.75 C 3.226562 -11.550781 2.484375 -14.625 2.484375 -17.96875 C 2.484375 -21.644531 3.226562 -24.921875 4.71875 -27.796875 C 6.207031 -30.679688 8.289062 -32.925781 10.96875 -34.53125 C 13.65625 -36.132812 16.753906 -36.9375 20.265625 -36.9375 C 22.484375 -36.9375 24.535156 -36.640625 26.421875 -36.046875 C 28.304688 -35.453125 29.957031 -34.707031 31.375 -33.8125 L 28.546875 -27.015625 C 25.929688 -29.003906 23.253906 -30 20.515625 -30 C 18.660156 -30 16.921875 -29.484375 15.296875 -28.453125 C 13.671875 -27.421875 12.378906 -26.019531 11.421875 -24.25 C 10.460938 -22.476562 9.984375 -20.519531 9.984375 -18.375 C 9.984375 -16.019531 10.425781 -13.957031 11.3125 -12.1875 C 12.207031 -10.414062 13.484375 -9.03125 15.140625 -8.03125 C 16.796875 -7.039062 18.734375 -6.546875 20.953125 -6.546875 C 22.742188 -6.546875 24.347656 -6.835938 25.765625 -7.421875 C 27.191406 -8.003906 28.316406 -8.691406 29.140625 -9.484375 Z M 32.125 -3.03125 "/></g></g></g><g fill="#000000" fill-opacity="1"><g transform="translate(441.651812, 286.226176)"><g><path d="M 26.859375 -36.546875 L 26.859375 -29.59375 L 17.96875 -29.59375 L 17.96875 0 L 10.78125 0 L 10.78125 -29.59375 L 2.234375 -29.59375 L 2.234375 -36.546875 Z M 26.859375 -36.546875 "/></g></g></g><g fill="#000000" fill-opacity="1"><g transform="translate(470.747166, 286.226176)"><g><path d="M 11.921875 -36.546875 L 11.921875 0 L 4.71875 0 L 4.71875 -36.546875 Z M 11.921875 -36.546875 "/></g></g></g><g fill="#000000" fill-opacity="1"><g transform="translate(487.380178, 286.226176)"><g><path d="M 2.484375 -18.21875 C 2.484375 -21.53125 3.316406 -24.625 4.984375 -27.5 C 6.660156 -30.382812 8.929688 -32.675781 11.796875 -34.375 C 14.660156 -36.082031 17.765625 -36.9375 21.109375 -36.9375 C 24.453125 -36.9375 27.550781 -36.082031 30.40625 -34.375 C 33.269531 -32.675781 35.554688 -30.382812 37.265625 -27.5 C 38.972656 -24.625 39.828125 -21.53125 39.828125 -18.21875 C 39.828125 -14.84375 38.972656 -11.734375 37.265625 -8.890625 C 35.554688 -6.046875 33.269531 -3.785156 30.40625 -2.109375 C 27.550781 -0.441406 24.453125 0.390625 21.109375 0.390625 C 17.722656 0.390625 14.609375 -0.441406 11.765625 -2.109375 C 8.921875 -3.785156 6.660156 -6.046875 4.984375 -8.890625 C 3.316406 -11.734375 2.484375 -14.84375 2.484375 -18.21875 Z M 9.9375 -18.21875 C 9.9375 -16.101562 10.4375 -14.148438 11.4375 -12.359375 C 12.445312 -10.578125 13.820312 -9.160156 15.5625 -8.109375 C 17.300781 -7.066406 19.234375 -6.546875 21.359375 -6.546875 C 23.410156 -6.546875 25.28125 -7.066406 26.96875 -8.109375 C 28.65625 -9.160156 29.976562 -10.570312 30.9375 -12.34375 C 31.894531 -14.113281 32.375 -16.070312 32.375 -18.21875 C 32.375 -20.40625 31.875 -22.390625 30.875 -24.171875 C 29.882812 -25.960938 28.535156 -27.378906 26.828125 -28.421875 C 25.128906 -29.472656 23.238281 -30 21.15625 -30 C 19.070312 -30 17.175781 -29.472656 15.46875 -28.421875 C 13.757812 -27.378906 12.410156 -25.960938 11.421875 -24.171875 C 10.429688 -22.390625 9.9375 -20.40625 9.9375 -18.21875 Z M 9.9375 -18.21875 "/></g></g></g><g fill="#000000" fill-opacity="1"><g transform="translate(529.682639, 286.226176)"><g><path d="M 37.640625 -36.546875 L 37.640625 1.484375 L 37.4375 1.484375 L 11.875 -21.59375 L 12.015625 0 L 4.71875 0 L 4.71875 -37.984375 L 5.015625 -37.984375 L 30.53125 -14.546875 L 30.390625 -36.546875 Z M 37.640625 -36.546875 "/></g></g></g><g fill="#000000" fill-opacity="1"><g transform="translate(572.034756, 286.226176)"><g><path d="M 24.234375 -27.703125 C 21.054688 -29.460938 18.289062 -30.34375 15.9375 -30.34375 C 14.351562 -30.34375 13.117188 -30.023438 12.234375 -29.390625 C 11.359375 -28.765625 10.921875 -27.820312 10.921875 -26.5625 C 10.921875 -25.40625 11.554688 -24.390625 12.828125 -23.515625 C 14.109375 -22.640625 15.804688 -21.800781 17.921875 -21 C 19.648438 -20.375 21.125 -19.65625 22.34375 -18.84375 C 23.570312 -18.03125 24.585938 -16.910156 25.390625 -15.484375 C 26.203125 -14.066406 26.609375 -12.265625 26.609375 -10.078125 C 26.609375 -8.191406 26.117188 -6.445312 25.140625 -4.84375 C 24.171875 -3.238281 22.742188 -1.960938 20.859375 -1.015625 C 18.972656 -0.078125 16.722656 0.390625 14.109375 0.390625 C 11.921875 0.390625 9.75 0.0664062 7.59375 -0.578125 C 5.445312 -1.222656 3.445312 -2.207031 1.59375 -3.53125 L 4.765625 -9.140625 C 6.023438 -8.210938 7.460938 -7.445312 9.078125 -6.84375 C 10.703125 -6.25 12.160156 -5.953125 13.453125 -5.953125 C 14.972656 -5.953125 16.296875 -6.273438 17.421875 -6.921875 C 18.554688 -7.566406 19.125 -8.617188 19.125 -10.078125 C 19.125 -11.960938 17.347656 -13.601562 13.796875 -15 C 11.710938 -15.820312 9.972656 -16.613281 8.578125 -17.375 C 7.191406 -18.132812 5.992188 -19.226562 4.984375 -20.65625 C 3.972656 -22.082031 3.46875 -23.867188 3.46875 -26.015625 C 3.46875 -29.160156 4.503906 -31.691406 6.578125 -33.609375 C 8.648438 -35.535156 11.40625 -36.582031 14.84375 -36.75 C 17.5625 -36.75 19.828125 -36.441406 21.640625 -35.828125 C 23.460938 -35.210938 25.238281 -34.34375 26.96875 -33.21875 Z M 24.234375 -27.703125 "/></g></g></g><g fill="#000000" fill-opacity="1"><g transform="translate(600.985166, 286.226176)"><g/></g></g><g fill="#000000" fill-opacity="0.302"><g transform="translate(40.557943, 231.618095)"><g><path d="M 6.703125 -60.390625 C 4.898438 -61.566406 3.3125 -63.660156 1.9375 -66.671875 C 0.570312 -69.691406 -0.109375 -72.570312 -0.109375 -75.3125 C -0.109375 -77.195312 0.144531 -78.664062 0.65625 -79.71875 C 1.164062 -80.78125 2.046875 -81.644531 3.296875 -82.3125 C 4.546875 -82.976562 6.425781 -83.546875 8.9375 -84.015625 C 11.363281 -84.554688 18.019531 -84.828125 28.90625 -84.828125 C 35.800781 -84.828125 40.460938 -84.769531 42.890625 -84.65625 C 45.316406 -84.539062 47.140625 -84.265625 48.359375 -83.828125 C 49.578125 -83.398438 50.847656 -82.597656 52.171875 -81.421875 C 54.921875 -78.921875 57.054688 -75.257812 58.578125 -70.4375 C 60.109375 -65.625 60.363281 -61.804688 59.34375 -58.984375 C 58.789062 -57.648438 58.257812 -56.847656 57.75 -56.578125 C 57.25 -56.304688 53.316406 -56.171875 45.953125 -56.171875 L 34.78125 -56.171875 L 35.140625 -54.75 C 35.296875 -53.894531 35.570312 -52.332031 35.96875 -50.0625 L 36.4375 -46.640625 L 43.59375 -46.40625 C 48.375 -46.175781 51.351562 -45.90625 52.53125 -45.59375 C 55.113281 -44.882812 57.347656 -42.535156 59.234375 -38.546875 C 60.867188 -35.171875 61.6875 -31.992188 61.6875 -29.015625 C 61.6875 -26.273438 61.101562 -24.59375 59.9375 -23.96875 C 59.226562 -23.570312 53.234375 -22.90625 41.953125 -21.96875 C 40.390625 -21.894531 39.46875 -21.796875 39.1875 -21.671875 C 38.914062 -21.554688 38.820312 -21.265625 38.90625 -20.796875 C 39.0625 -20.171875 39.195312 -17.175781 39.3125 -11.8125 C 39.425781 -6.445312 39.5625 -3.289062 39.71875 -2.34375 C 39.957031 -1.488281 40 -0.707031 39.84375 0 C 39.53125 1.332031 38.097656 2.113281 35.546875 2.34375 C 33.003906 2.582031 30.285156 2.191406 27.390625 1.171875 C 21.273438 -0.859375 17.4375 -3.675781 15.875 -7.28125 C 13.832031 -11.90625 12.265625 -17.035156 11.171875 -22.671875 C 10.234375 -27.054688 9.410156 -30.347656 8.703125 -32.546875 C 8.148438 -34.109375 7.851562 -35.320312 7.8125 -36.1875 C 7.78125 -37.050781 7.921875 -38.460938 8.234375 -40.421875 C 8.234375 -40.890625 8.234375 -44.179688 8.234375 -50.296875 L 8.109375 -59.34375 Z M 6.703125 -60.390625 "/></g></g></g><g fill="#000000" fill-opacity="0.302"><g transform="translate(102.828941, 231.618095)"><g><path d="M 10.8125 -4.578125 C 7.988281 -6.535156 5.675781 -9.828125 3.875 -14.453125 C 1.84375 -19.390625 0.863281 -24.320312 0.9375 -29.25 C 1.019531 -34.1875 2.117188 -40.613281 4.234375 -48.53125 C 6.972656 -58.632812 9.988281 -66.269531 13.28125 -71.4375 C 16.570312 -76.601562 20.601562 -80.128906 25.375 -82.015625 C 27.101562 -82.640625 29.882812 -82.992188 33.71875 -83.078125 C 36.457031 -83.148438 38.375 -83.128906 39.46875 -83.015625 C 40.570312 -82.898438 42.492188 -82.488281 45.234375 -81.78125 C 53.617188 -79.664062 60.492188 -75.925781 65.859375 -70.5625 C 71.222656 -65.195312 75.273438 -58.046875 78.015625 -49.109375 C 81.546875 -37.359375 82.914062 -26.082031 82.125 -15.28125 C 81.582031 -9.09375 80.898438 -5.078125 80.078125 -3.234375 C 79.253906 -1.390625 77.507812 -0.191406 74.84375 0.359375 C 72.414062 0.898438 70.03125 0.9375 67.6875 0.46875 C 61.882812 -0.46875 57.457031 -2.304688 54.40625 -5.046875 C 53.300781 -6.066406 52.535156 -7.007812 52.109375 -7.875 C 51.679688 -8.738281 51.46875 -9.910156 51.46875 -11.390625 C 51.46875 -13.117188 51.3125 -14.0625 51 -14.21875 C 50.601562 -14.289062 47.429688 -14.445312 41.484375 -14.6875 L 32.546875 -15.046875 L 32.3125 -11.625 C 32 -8.1875 31.410156 -5.738281 30.546875 -4.28125 C 29.679688 -2.832031 28.191406 -1.851562 26.078125 -1.34375 C 23.960938 -0.84375 21.378906 -0.921875 18.328125 -1.578125 C 15.273438 -2.242188 12.769531 -3.242188 10.8125 -4.578125 Z M 32.1875 -44.1875 L 31.84375 -41.953125 L 34.1875 -42.1875 C 35.832031 -42.414062 38.066406 -42.609375 40.890625 -42.765625 C 43.941406 -42.921875 46.019531 -43.039062 47.125 -43.125 L 48.875 -43.359375 L 48.53125 -44.890625 C 47.664062 -48.015625 46.234375 -51.925781 44.234375 -56.625 C 42.242188 -61.332031 41.007812 -63.6875 40.53125 -63.6875 C 40.21875 -63.6875 39.59375 -63.019531 38.65625 -61.6875 C 37.71875 -60.351562 36.816406 -58.863281 35.953125 -57.21875 C 35.171875 -55.726562 34.40625 -53.691406 33.65625 -51.109375 C 32.914062 -48.523438 32.425781 -46.21875 32.1875 -44.1875 Z M 32.1875 -44.1875 "/></g></g></g><g fill="#000000" fill-opacity="0.302"><g transform="translate(186.366087, 231.618095)"><g><path d="M 8.234375 -80.953125 C 12.222656 -82.441406 17.195312 -83.1875 23.15625 -83.1875 C 37.570312 -83.1875 48.734375 -77.429688 56.640625 -65.921875 C 68.078125 -49.472656 65.414062 -36.625 48.65625 -27.375 L 46.421875 -26.078125 L 51.59375 -22.796875 C 56.6875 -19.503906 60.914062 -16.367188 64.28125 -13.390625 C 65.84375 -11.984375 66.679688 -10.847656 66.796875 -9.984375 C 66.921875 -9.117188 66.359375 -7.984375 65.109375 -6.578125 C 63.066406 -4.390625 60.023438 -2.664062 55.984375 -1.40625 C 51.953125 -0.15625 48.84375 0.0351562 46.65625 -0.828125 C 45.25 -1.367188 41.800781 -4.265625 36.3125 -9.515625 L 31.84375 -13.75 L 32.078125 -8.8125 C 32.316406 -5.832031 32.257812 -3.796875 31.90625 -2.703125 C 31.550781 -1.609375 30.75 -0.75 29.5 -0.125 C 28.476562 0.351562 26.890625 0.628906 24.734375 0.703125 C 22.585938 0.785156 20.691406 0.628906 19.046875 0.234375 C 13.710938 -0.941406 10.300781 -3.019531 8.8125 -6 C 8.425781 -6.78125 8 -8.695312 7.53125 -11.75 C 7.132812 -14.644531 6.859375 -16.445312 6.703125 -17.15625 C 6.546875 -17.78125 6.113281 -23.457031 5.40625 -34.1875 C 4.238281 -51.96875 4.003906 -61.800781 4.703125 -63.6875 C 4.941406 -64.394531 4.59375 -65.296875 3.65625 -66.390625 C 0.59375 -69.910156 0.117188 -73.28125 2.234375 -76.5 C 2.703125 -77.125 3.113281 -77.628906 3.46875 -78.015625 C 3.820312 -78.410156 4.234375 -78.785156 4.703125 -79.140625 C 5.171875 -79.492188 5.679688 -79.804688 6.234375 -80.078125 C 6.785156 -80.347656 7.453125 -80.640625 8.234375 -80.953125 Z M 27.859375 -62.75 C 24.878906 -62.75 23.390625 -62.550781 23.390625 -62.15625 C 23.460938 -62.082031 23.617188 -61.96875 23.859375 -61.8125 C 24.878906 -61.175781 25.9375 -57.414062 27.03125 -50.53125 C 27.738281 -46.457031 28.09375 -44.300781 28.09375 -44.0625 C 28.09375 -43.664062 28.835938 -43.820312 30.328125 -44.53125 C 30.640625 -44.6875 31.109375 -44.921875 31.734375 -45.234375 C 32.910156 -45.785156 34.144531 -46.488281 35.4375 -47.34375 C 36.726562 -48.207031 37.878906 -49.109375 38.890625 -50.046875 C 39.910156 -50.992188 40.695312 -51.894531 41.25 -52.75 C 43.363281 -55.882812 44.34375 -58.003906 44.1875 -59.109375 C 44.101562 -59.648438 43.238281 -60.210938 41.59375 -60.796875 C 39.957031 -61.390625 37.863281 -61.863281 35.3125 -62.21875 C 32.769531 -62.570312 30.285156 -62.75 27.859375 -62.75 Z M 27.859375 -62.75 "/></g></g></g><g fill="#000000" fill-opacity="0.302"><g transform="translate(253.336809, 231.618095)"><g><path d="M 10.8125 -4.578125 C 7.988281 -6.535156 5.675781 -9.828125 3.875 -14.453125 C 1.84375 -19.390625 0.863281 -24.320312 0.9375 -29.25 C 1.019531 -34.1875 2.117188 -40.613281 4.234375 -48.53125 C 6.972656 -58.632812 9.988281 -66.269531 13.28125 -71.4375 C 16.570312 -76.601562 20.601562 -80.128906 25.375 -82.015625 C 27.101562 -82.640625 29.882812 -82.992188 33.71875 -83.078125 C 36.457031 -83.148438 38.375 -83.128906 39.46875 -83.015625 C 40.570312 -82.898438 42.492188 -82.488281 45.234375 -81.78125 C 53.617188 -79.664062 60.492188 -75.925781 65.859375 -70.5625 C 71.222656 -65.195312 75.273438 -58.046875 78.015625 -49.109375 C 81.546875 -37.359375 82.914062 -26.082031 82.125 -15.28125 C 81.582031 -9.09375 80.898438 -5.078125 80.078125 -3.234375 C 79.253906 -1.390625 77.507812 -0.191406 74.84375 0.359375 C 72.414062 0.898438 70.03125 0.9375 67.6875 0.46875 C 61.882812 -0.46875 57.457031 -2.304688 54.40625 -5.046875 C 53.300781 -6.066406 52.535156 -7.007812 52.109375 -7.875 C 51.679688 -8.738281 51.46875 -9.910156 51.46875 -11.390625 C 51.46875 -13.117188 51.3125 -14.0625 51 -14.21875 C 50.601562 -14.289062 47.429688 -14.445312 41.484375 -14.6875 L 32.546875 -15.046875 L 32.3125 -11.625 C 32 -8.1875 31.410156 -5.738281 30.546875 -4.28125 C 29.679688 -2.832031 28.191406 -1.851562 26.078125 -1.34375 C 23.960938 -0.84375 21.378906 -0.921875 18.328125 -1.578125 C 15.273438 -2.242188 12.769531 -3.242188 10.8125 -4.578125 Z M 32.1875 -44.1875 L 31.84375 -41.953125 L 34.1875 -42.1875 C 35.832031 -42.414062 38.066406 -42.609375 40.890625 -42.765625 C 43.941406 -42.921875 46.019531 -43.039062 47.125 -43.125 L 48.875 -43.359375 L 48.53125 -44.890625 C 47.664062 -48.015625 46.234375 -51.925781 44.234375 -56.625 C 42.242188 -61.332031 41.007812 -63.6875 40.53125 -63.6875 C 40.21875 -63.6875 39.59375 -63.019531 38.65625 -61.6875 C 37.71875 -60.351562 36.816406 -58.863281 35.953125 -57.21875 C 35.171875 -55.726562 34.40625 -53.691406 33.65625 -51.109375 C 32.914062 -48.523438 32.425781 -46.21875 32.1875 -44.1875 Z M 32.1875 -44.1875 "/></g></g></g><g fill="#000000" fill-opacity="0.302"><g transform="translate(336.873955, 231.618095)"><g><path d="M 6.59375 -60.390625 C 4.789062 -61.566406 3.203125 -63.660156 1.828125 -66.671875 C 0.453125 -69.691406 -0.234375 -72.570312 -0.234375 -75.3125 C -0.234375 -77.976562 0.375 -79.898438 1.59375 -81.078125 C 2.8125 -82.253906 5.21875 -83.234375 8.8125 -84.015625 C 11.25 -84.554688 17.910156 -84.828125 28.796875 -84.828125 C 35.691406 -84.828125 40.351562 -84.769531 42.78125 -84.65625 C 45.207031 -84.539062 47.023438 -84.265625 48.234375 -83.828125 C 49.453125 -83.398438 50.726562 -82.597656 52.0625 -81.421875 C 54.800781 -78.921875 56.929688 -75.257812 58.453125 -70.4375 C 59.984375 -65.625 60.242188 -61.804688 59.234375 -58.984375 C 58.679688 -57.648438 58.148438 -56.847656 57.640625 -56.578125 C 57.128906 -56.304688 53.191406 -56.171875 45.828125 -56.171875 L 34.671875 -56.171875 L 35.015625 -54.75 C 35.171875 -53.894531 35.445312 -52.332031 35.84375 -50.0625 L 36.3125 -46.640625 L 43.484375 -46.40625 C 48.265625 -46.175781 51.238281 -45.90625 52.40625 -45.59375 C 55 -44.882812 57.234375 -42.535156 59.109375 -38.546875 C 60.753906 -35.171875 61.578125 -31.992188 61.578125 -29.015625 C 61.578125 -26.273438 60.988281 -24.59375 59.8125 -23.96875 C 59.101562 -23.570312 53.113281 -22.90625 41.84375 -21.96875 C 39.800781 -21.8125 38.78125 -21.578125 38.78125 -21.265625 L 38.78125 -20.796875 C 38.9375 -20.171875 39.070312 -17.175781 39.1875 -11.8125 C 39.3125 -6.445312 39.453125 -3.289062 39.609375 -2.34375 C 39.835938 -1.488281 39.875 -0.707031 39.71875 0 C 39.40625 1.332031 37.972656 2.113281 35.421875 2.34375 C 32.878906 2.582031 30.160156 2.191406 27.265625 1.171875 C 21.160156 -0.859375 17.320312 -3.675781 15.75 -7.28125 C 13.71875 -11.90625 12.148438 -17.035156 11.046875 -22.671875 C 10.109375 -27.054688 9.285156 -30.347656 8.578125 -32.546875 C 8.035156 -34.109375 7.742188 -35.320312 7.703125 -36.1875 C 7.660156 -37.050781 7.796875 -38.460938 8.109375 -40.421875 C 8.109375 -40.890625 8.109375 -44.179688 8.109375 -50.296875 L 8 -59.34375 Z M 6.59375 -60.390625 "/></g></g></g><g fill="#000000" fill-opacity="0.302"><g transform="translate(399.144953, 231.618095)"><g><path d="M 14.453125 -6.34375 C 11.867188 -7.832031 10.046875 -9.535156 8.984375 -11.453125 C 7.929688 -13.367188 6.796875 -17.144531 5.578125 -22.78125 C 4.367188 -28.425781 3.488281 -33.914062 2.9375 -39.25 C 2.539062 -43.632812 2.265625 -49.800781 2.109375 -57.75 C 1.953125 -65.695312 1.992188 -70.648438 2.234375 -72.609375 C 2.546875 -74.492188 2.9375 -75.828125 3.40625 -76.609375 C 3.875 -77.390625 4.773438 -78.09375 6.109375 -78.71875 C 7.992188 -79.664062 10.65625 -79.941406 14.09375 -79.546875 C 17.539062 -79.148438 20.554688 -78.210938 23.140625 -76.734375 C 25.578125 -75.398438 27.441406 -73.867188 28.734375 -72.140625 C 30.023438 -70.421875 31.0625 -68.113281 31.84375 -65.21875 C 32.78125 -61.84375 33.425781 -58.3125 33.78125 -54.625 C 34.132812 -50.945312 34.390625 -44.800781 34.546875 -36.1875 C 34.859375 -25.300781 35.050781 -19.503906 35.125 -18.796875 C 35.289062 -17.929688 35.609375 -15.703125 36.078125 -12.109375 C 36.460938 -9.359375 36.65625 -7.691406 36.65625 -7.109375 C 36.65625 -6.523438 36.421875 -5.914062 35.953125 -5.28125 C 35.085938 -4.113281 33.476562 -3.332031 31.125 -2.9375 C 28.78125 -2.539062 26.195312 -2.617188 23.375 -3.171875 C 20.007812 -3.796875 17.035156 -4.851562 14.453125 -6.34375 Z M 14.453125 -6.34375 "/></g></g></g><g fill="#000000" fill-opacity="0.302"><g transform="translate(437.447487, 231.618095)"><g><path d="M 72.84375 -52.046875 C 74.019531 -42.804688 74.609375 -31.878906 74.609375 -19.265625 C 74.609375 -12.054688 74.296875 -7.945312 73.671875 -6.9375 C 73.203125 -6.382812 72.457031 -5.910156 71.4375 -5.515625 C 70.5 -5.203125 68.265625 -4.910156 64.734375 -4.640625 C 61.210938 -4.367188 58.039062 -4.269531 55.21875 -4.34375 C 50.757812 -4.425781 47.351562 -5.367188 45 -7.171875 C 44.0625 -7.867188 41.925781 -10.742188 38.59375 -15.796875 C 35.269531 -20.847656 32.078125 -26.039062 29.015625 -31.375 L 27.734375 -33.484375 L 27.96875 -29.25 C 28.195312 -25.882812 28.46875 -21.382812 28.78125 -15.75 C 29.019531 -12.457031 29.097656 -9.96875 29.015625 -8.28125 C 28.941406 -6.59375 28.765625 -5.515625 28.484375 -5.046875 C 28.210938 -4.578125 27.609375 -4.109375 26.671875 -3.640625 C 25.890625 -3.253906 24.710938 -2.941406 23.140625 -2.703125 C 21.578125 -2.460938 20.363281 -2.421875 19.5 -2.578125 C 19.425781 -2.578125 19.210938 -2.613281 18.859375 -2.6875 C 18.503906 -2.769531 18.09375 -2.851562 17.625 -2.9375 C 17.15625 -3.019531 16.722656 -3.097656 16.328125 -3.171875 C 13.984375 -3.640625 11.832031 -4.554688 9.875 -5.921875 C 7.914062 -7.296875 6.703125 -8.769531 6.234375 -10.34375 C 5.910156 -11.363281 5.476562 -14.144531 4.9375 -18.6875 C 4.382812 -22.832031 3.796875 -27.253906 3.171875 -31.953125 C 2.234375 -38.691406 1.976562 -47.191406 2.40625 -57.453125 C 2.84375 -67.710938 3.6875 -74.097656 4.9375 -76.609375 C 6.8125 -80.285156 10.570312 -81.03125 16.21875 -78.84375 C 18.09375 -78.132812 19.773438 -77.507812 21.265625 -76.96875 C 23.535156 -76.175781 25.179688 -75.347656 26.203125 -74.484375 C 27.222656 -73.628906 28.984375 -71.632812 31.484375 -68.5 C 34.929688 -64.113281 39.082031 -57.804688 43.9375 -49.578125 C 46.289062 -45.660156 47.742188 -43.273438 48.296875 -42.421875 L 49.109375 -41.125 L 48.875 -44.1875 C 48.332031 -50.375 48.078125 -57.144531 48.109375 -64.5 C 48.148438 -71.863281 48.460938 -76.191406 49.046875 -77.484375 C 49.640625 -78.785156 50.9375 -79.570312 52.9375 -79.84375 C 54.9375 -80.113281 57.304688 -79.78125 60.046875 -78.84375 C 65.210938 -77.113281 68.34375 -74.375 69.4375 -70.625 C 70.613281 -66.382812 71.75 -60.191406 72.84375 -52.046875 Z M 72.84375 -52.046875 "/></g></g></g><g fill="#000000" fill-opacity="0.302"><g transform="translate(514.28756, 231.618095)"><g><path d="M 10.8125 -4.578125 C 7.988281 -6.535156 5.675781 -9.828125 3.875 -14.453125 C 1.84375 -19.390625 0.863281 -24.320312 0.9375 -29.25 C 1.019531 -34.1875 2.117188 -40.613281 4.234375 -48.53125 C 6.972656 -58.632812 9.988281 -66.269531 13.28125 -71.4375 C 16.570312 -76.601562 20.601562 -80.128906 25.375 -82.015625 C 27.101562 -82.640625 29.882812 -82.992188 33.71875 -83.078125 C 36.457031 -83.148438 38.375 -83.128906 39.46875 -83.015625 C 40.570312 -82.898438 42.492188 -82.488281 45.234375 -81.78125 C 53.617188 -79.664062 60.492188 -75.925781 65.859375 -70.5625 C 71.222656 -65.195312 75.273438 -58.046875 78.015625 -49.109375 C 81.546875 -37.359375 82.914062 -26.082031 82.125 -15.28125 C 81.582031 -9.09375 80.898438 -5.078125 80.078125 -3.234375 C 79.253906 -1.390625 77.507812 -0.191406 74.84375 0.359375 C 72.414062 0.898438 70.03125 0.9375 67.6875 0.46875 C 61.882812 -0.46875 57.457031 -2.304688 54.40625 -5.046875 C 53.300781 -6.066406 52.535156 -7.007812 52.109375 -7.875 C 51.679688 -8.738281 51.46875 -9.910156 51.46875 -11.390625 C 51.46875 -13.117188 51.3125 -14.0625 51 -14.21875 C 50.601562 -14.289062 47.429688 -14.445312 41.484375 -14.6875 L 32.546875 -15.046875 L 32.3125 -11.625 C 32 -8.1875 31.410156 -5.738281 30.546875 -4.28125 C 29.679688 -2.832031 28.191406 -1.851562 26.078125 -1.34375 C 23.960938 -0.84375 21.378906 -0.921875 18.328125 -1.578125 C 15.273438 -2.242188 12.769531 -3.242188 10.8125 -4.578125 Z M 32.1875 -44.1875 L 31.84375 -41.953125 L 34.1875 -42.1875 C 35.832031 -42.414062 38.066406 -42.609375 40.890625 -42.765625 C 43.941406 -42.921875 46.019531 -43.039062 47.125 -43.125 L 48.875 -43.359375 L 48.53125 -44.890625 C 47.664062 -48.015625 46.234375 -51.925781 44.234375 -56.625 C 42.242188 -61.332031 41.007812 -63.6875 40.53125 -63.6875 C 40.21875 -63.6875 39.59375 -63.019531 38.65625 -61.6875 C 37.71875 -60.351562 36.816406 -58.863281 35.953125 -57.21875 C 35.171875 -55.726562 34.40625 -53.691406 33.65625 -51.109375 C 32.914062 -48.523438 32.425781 -46.21875 32.1875 -44.1875 Z M 32.1875 -44.1875 "/></g></g></g><g fill="#000000" fill-opacity="0.502"><g transform="translate(38.952853, 233.530967)"><g><path d="M 6.703125 -60.390625 C 4.898438 -61.566406 3.3125 -63.660156 1.9375 -66.671875 C 0.570312 -69.691406 -0.109375 -72.570312 -0.109375 -75.3125 C -0.109375 -77.195312 0.144531 -78.664062 0.65625 -79.71875 C 1.164062 -80.78125 2.046875 -81.644531 3.296875 -82.3125 C 4.546875 -82.976562 6.425781 -83.546875 8.9375 -84.015625 C 11.363281 -84.554688 18.019531 -84.828125 28.90625 -84.828125 C 35.800781 -84.828125 40.460938 -84.769531 42.890625 -84.65625 C 45.316406 -84.539062 47.140625 -84.265625 48.359375 -83.828125 C 49.578125 -83.398438 50.847656 -82.597656 52.171875 -81.421875 C 54.921875 -78.921875 57.054688 -75.257812 58.578125 -70.4375 C 60.109375 -65.625 60.363281 -61.804688 59.34375 -58.984375 C 58.789062 -57.648438 58.257812 -56.847656 57.75 -56.578125 C 57.25 -56.304688 53.316406 -56.171875 45.953125 -56.171875 L 34.78125 -56.171875 L 35.140625 -54.75 C 35.296875 -53.894531 35.570312 -52.332031 35.96875 -50.0625 L 36.4375 -46.640625 L 43.59375 -46.40625 C 48.375 -46.175781 51.351562 -45.90625 52.53125 -45.59375 C 55.113281 -44.882812 57.347656 -42.535156 59.234375 -38.546875 C 60.867188 -35.171875 61.6875 -31.992188 61.6875 -29.015625 C 61.6875 -26.273438 61.101562 -24.59375 59.9375 -23.96875 C 59.226562 -23.570312 53.234375 -22.90625 41.953125 -21.96875 C 40.390625 -21.894531 39.46875 -21.796875 39.1875 -21.671875 C 38.914062 -21.554688 38.820312 -21.265625 38.90625 -20.796875 C 39.0625 -20.171875 39.195312 -17.175781 39.3125 -11.8125 C 39.425781 -6.445312 39.5625 -3.289062 39.71875 -2.34375 C 39.957031 -1.488281 40 -0.707031 39.84375 0 C 39.53125 1.332031 38.097656 2.113281 35.546875 2.34375 C 33.003906 2.582031 30.285156 2.191406 27.390625 1.171875 C 21.273438 -0.859375 17.4375 -3.675781 15.875 -7.28125 C 13.832031 -11.90625 12.265625 -17.035156 11.171875 -22.671875 C 10.234375 -27.054688 9.410156 -30.347656 8.703125 -32.546875 C 8.148438 -34.109375 7.851562 -35.320312 7.8125 -36.1875 C 7.78125 -37.050781 7.921875 -38.460938 8.234375 -40.421875 C 8.234375 -40.890625 8.234375 -44.179688 8.234375 -50.296875 L 8.109375 -59.34375 Z M 6.703125 -60.390625 "/></g></g></g><g fill="#000000" fill-opacity="0.502"><g transform="translate(101.223851, 233.530967)"><g><path d="M 10.8125 -4.578125 C 7.988281 -6.535156 5.675781 -9.828125 3.875 -14.453125 C 1.84375 -19.390625 0.863281 -24.320312 0.9375 -29.25 C 1.019531 -34.1875 2.117188 -40.613281 4.234375 -48.53125 C 6.972656 -58.632812 9.988281 -66.269531 13.28125 -71.4375 C 16.570312 -76.601562 20.601562 -80.128906 25.375 -82.015625 C 27.101562 -82.640625 29.882812 -82.992188 33.71875 -83.078125 C 36.457031 -83.148438 38.375 -83.128906 39.46875 -83.015625 C 40.570312 -82.898438 42.492188 -82.488281 45.234375 -81.78125 C 53.617188 -79.664062 60.492188 -75.925781 65.859375 -70.5625 C 71.222656 -65.195312 75.273438 -58.046875 78.015625 -49.109375 C 81.546875 -37.359375 82.914062 -26.082031 82.125 -15.28125 C 81.582031 -9.09375 80.898438 -5.078125 80.078125 -3.234375 C 79.253906 -1.390625 77.507812 -0.191406 74.84375 0.359375 C 72.414062 0.898438 70.03125 0.9375 67.6875 0.46875 C 61.882812 -0.46875 57.457031 -2.304688 54.40625 -5.046875 C 53.300781 -6.066406 52.535156 -7.007812 52.109375 -7.875 C 51.679688 -8.738281 51.46875 -9.910156 51.46875 -11.390625 C 51.46875 -13.117188 51.3125 -14.0625 51 -14.21875 C 50.601562 -14.289062 47.429688 -14.445312 41.484375 -14.6875 L 32.546875 -15.046875 L 32.3125 -11.625 C 32 -8.1875 31.410156 -5.738281 30.546875 -4.28125 C 29.679688 -2.832031 28.191406 -1.851562 26.078125 -1.34375 C 23.960938 -0.84375 21.378906 -0.921875 18.328125 -1.578125 C 15.273438 -2.242188 12.769531 -3.242188 10.8125 -4.578125 Z M 32.1875 -44.1875 L 31.84375 -41.953125 L 34.1875 -42.1875 C 35.832031 -42.414062 38.066406 -42.609375 40.890625 -42.765625 C 43.941406 -42.921875 46.019531 -43.039062 47.125 -43.125 L 48.875 -43.359375 L 48.53125 -44.890625 C 47.664062 -48.015625 46.234375 -51.925781 44.234375 -56.625 C 42.242188 -61.332031 41.007812 -63.6875 40.53125 -63.6875 C 40.21875 -63.6875 39.59375 -63.019531 38.65625 -61.6875 C 37.71875 -60.351562 36.816406 -58.863281 35.953125 -57.21875 C 35.171875 -55.726562 34.40625 -53.691406 33.65625 -51.109375 C 32.914062 -48.523438 32.425781 -46.21875 32.1875 -44.1875 Z M 32.1875 -44.1875 "/></g></g></g><g fill="#000000" fill-opacity="0.502"><g transform="translate(184.760997, 233.530967)"><g><path d="M 8.234375 -80.953125 C 12.222656 -82.441406 17.195312 -83.1875 23.15625 -83.1875 C 37.570312 -83.1875 48.734375 -77.429688 56.640625 -65.921875 C 68.078125 -49.472656 65.414062 -36.625 48.65625 -27.375 L 46.421875 -26.078125 L 51.59375 -22.796875 C 56.6875 -19.503906 60.914062 -16.367188 64.28125 -13.390625 C 65.84375 -11.984375 66.679688 -10.847656 66.796875 -9.984375 C 66.921875 -9.117188 66.359375 -7.984375 65.109375 -6.578125 C 63.066406 -4.390625 60.023438 -2.664062 55.984375 -1.40625 C 51.953125 -0.15625 48.84375 0.0351562 46.65625 -0.828125 C 45.25 -1.367188 41.800781 -4.265625 36.3125 -9.515625 L 31.84375 -13.75 L 32.078125 -8.8125 C 32.316406 -5.832031 32.257812 -3.796875 31.90625 -2.703125 C 31.550781 -1.609375 30.75 -0.75 29.5 -0.125 C 28.476562 0.351562 26.890625 0.628906 24.734375 0.703125 C 22.585938 0.785156 20.691406 0.628906 19.046875 0.234375 C 13.710938 -0.941406 10.300781 -3.019531 8.8125 -6 C 8.425781 -6.78125 8 -8.695312 7.53125 -11.75 C 7.132812 -14.644531 6.859375 -16.445312 6.703125 -17.15625 C 6.546875 -17.78125 6.113281 -23.457031 5.40625 -34.1875 C 4.238281 -51.96875 4.003906 -61.800781 4.703125 -63.6875 C 4.941406 -64.394531 4.59375 -65.296875 3.65625 -66.390625 C 0.59375 -69.910156 0.117188 -73.28125 2.234375 -76.5 C 2.703125 -77.125 3.113281 -77.628906 3.46875 -78.015625 C 3.820312 -78.410156 4.234375 -78.785156 4.703125 -79.140625 C 5.171875 -79.492188 5.679688 -79.804688 6.234375 -80.078125 C 6.785156 -80.347656 7.453125 -80.640625 8.234375 -80.953125 Z M 27.859375 -62.75 C 24.878906 -62.75 23.390625 -62.550781 23.390625 -62.15625 C 23.460938 -62.082031 23.617188 -61.96875 23.859375 -61.8125 C 24.878906 -61.175781 25.9375 -57.414062 27.03125 -50.53125 C 27.738281 -46.457031 28.09375 -44.300781 28.09375 -44.0625 C 28.09375 -43.664062 28.835938 -43.820312 30.328125 -44.53125 C 30.640625 -44.6875 31.109375 -44.921875 31.734375 -45.234375 C 32.910156 -45.785156 34.144531 -46.488281 35.4375 -47.34375 C 36.726562 -48.207031 37.878906 -49.109375 38.890625 -50.046875 C 39.910156 -50.992188 40.695312 -51.894531 41.25 -52.75 C 43.363281 -55.882812 44.34375 -58.003906 44.1875 -59.109375 C 44.101562 -59.648438 43.238281 -60.210938 41.59375 -60.796875 C 39.957031 -61.390625 37.863281 -61.863281 35.3125 -62.21875 C 32.769531 -62.570312 30.285156 -62.75 27.859375 -62.75 Z M 27.859375 -62.75 "/></g></g></g><g fill="#000000" fill-opacity="0.502"><g transform="translate(251.731718, 233.530967)"><g><path d="M 10.8125 -4.578125 C 7.988281 -6.535156 5.675781 -9.828125 3.875 -14.453125 C 1.84375 -19.390625 0.863281 -24.320312 0.9375 -29.25 C 1.019531 -34.1875 2.117188 -40.613281 4.234375 -48.53125 C 6.972656 -58.632812 9.988281 -66.269531 13.28125 -71.4375 C 16.570312 -76.601562 20.601562 -80.128906 25.375 -82.015625 C 27.101562 -82.640625 29.882812 -82.992188 33.71875 -83.078125 C 36.457031 -83.148438 38.375 -83.128906 39.46875 -83.015625 C 40.570312 -82.898438 42.492188 -82.488281 45.234375 -81.78125 C 53.617188 -79.664062 60.492188 -75.925781 65.859375 -70.5625 C 71.222656 -65.195312 75.273438 -58.046875 78.015625 -49.109375 C 81.546875 -37.359375 82.914062 -26.082031 82.125 -15.28125 C 81.582031 -9.09375 80.898438 -5.078125 80.078125 -3.234375 C 79.253906 -1.390625 77.507812 -0.191406 74.84375 0.359375 C 72.414062 0.898438 70.03125 0.9375 67.6875 0.46875 C 61.882812 -0.46875 57.457031 -2.304688 54.40625 -5.046875 C 53.300781 -6.066406 52.535156 -7.007812 52.109375 -7.875 C 51.679688 -8.738281 51.46875 -9.910156 51.46875 -11.390625 C 51.46875 -13.117188 51.3125 -14.0625 51 -14.21875 C 50.601562 -14.289062 47.429688 -14.445312 41.484375 -14.6875 L 32.546875 -15.046875 L 32.3125 -11.625 C 32 -8.1875 31.410156 -5.738281 30.546875 -4.28125 C 29.679688 -2.832031 28.191406 -1.851562 26.078125 -1.34375 C 23.960938 -0.84375 21.378906 -0.921875 18.328125 -1.578125 C 15.273438 -2.242188 12.769531 -3.242188 10.8125 -4.578125 Z M 32.1875 -44.1875 L 31.84375 -41.953125 L 34.1875 -42.1875 C 35.832031 -42.414062 38.066406 -42.609375 40.890625 -42.765625 C 43.941406 -42.921875 46.019531 -43.039062 47.125 -43.125 L 48.875 -43.359375 L 48.53125 -44.890625 C 47.664062 -48.015625 46.234375 -51.925781 44.234375 -56.625 C 42.242188 -61.332031 41.007812 -63.6875 40.53125 -63.6875 C 40.21875 -63.6875 39.59375 -63.019531 38.65625 -61.6875 C 37.71875 -60.351562 36.816406 -58.863281 35.953125 -57.21875 C 35.171875 -55.726562 34.40625 -53.691406 33.65625 -51.109375 C 32.914062 -48.523438 32.425781 -46.21875 32.1875 -44.1875 Z M 32.1875 -44.1875 "/></g></g></g><g fill="#000000" fill-opacity="0.502"><g transform="translate(335.268864, 233.530967)"><g><path d="M 6.59375 -60.390625 C 4.789062 -61.566406 3.203125 -63.660156 1.828125 -66.671875 C 0.453125 -69.691406 -0.234375 -72.570312 -0.234375 -75.3125 C -0.234375 -77.976562 0.375 -79.898438 1.59375 -81.078125 C 2.8125 -82.253906 5.21875 -83.234375 8.8125 -84.015625 C 11.25 -84.554688 17.910156 -84.828125 28.796875 -84.828125 C 35.691406 -84.828125 40.351562 -84.769531 42.78125 -84.65625 C 45.207031 -84.539062 47.023438 -84.265625 48.234375 -83.828125 C 49.453125 -83.398438 50.726562 -82.597656 52.0625 -81.421875 C 54.800781 -78.921875 56.929688 -75.257812 58.453125 -70.4375 C 59.984375 -65.625 60.242188 -61.804688 59.234375 -58.984375 C 58.679688 -57.648438 58.148438 -56.847656 57.640625 -56.578125 C 57.128906 -56.304688 53.191406 -56.171875 45.828125 -56.171875 L 34.671875 -56.171875 L 35.015625 -54.75 C 35.171875 -53.894531 35.445312 -52.332031 35.84375 -50.0625 L 36.3125 -46.640625 L 43.484375 -46.40625 C 48.265625 -46.175781 51.238281 -45.90625 52.40625 -45.59375 C 55 -44.882812 57.234375 -42.535156 59.109375 -38.546875 C 60.753906 -35.171875 61.578125 -31.992188 61.578125 -29.015625 C 61.578125 -26.273438 60.988281 -24.59375 59.8125 -23.96875 C 59.101562 -23.570312 53.113281 -22.90625 41.84375 -21.96875 C 39.800781 -21.8125 38.78125 -21.578125 38.78125 -21.265625 L 38.78125 -20.796875 C 38.9375 -20.171875 39.070312 -17.175781 39.1875 -11.8125 C 39.3125 -6.445312 39.453125 -3.289062 39.609375 -2.34375 C 39.835938 -1.488281 39.875 -0.707031 39.71875 0 C 39.40625 1.332031 37.972656 2.113281 35.421875 2.34375 C 32.878906 2.582031 30.160156 2.191406 27.265625 1.171875 C 21.160156 -0.859375 17.320312 -3.675781 15.75 -7.28125 C 13.71875 -11.90625 12.148438 -17.035156 11.046875 -22.671875 C 10.109375 -27.054688 9.285156 -30.347656 8.578125 -32.546875 C 8.035156 -34.109375 7.742188 -35.320312 7.703125 -36.1875 C 7.660156 -37.050781 7.796875 -38.460938 8.109375 -40.421875 C 8.109375 -40.890625 8.109375 -44.179688 8.109375 -50.296875 L 8 -59.34375 Z M 6.59375 -60.390625 "/></g></g></g><g fill="#000000" fill-opacity="0.502"><g transform="translate(397.539863, 233.530967)"><g><path d="M 14.453125 -6.34375 C 11.867188 -7.832031 10.046875 -9.535156 8.984375 -11.453125 C 7.929688 -13.367188 6.796875 -17.144531 5.578125 -22.78125 C 4.367188 -28.425781 3.488281 -33.914062 2.9375 -39.25 C 2.539062 -43.632812 2.265625 -49.800781 2.109375 -57.75 C 1.953125 -65.695312 1.992188 -70.648438 2.234375 -72.609375 C 2.546875 -74.492188 2.9375 -75.828125 3.40625 -76.609375 C 3.875 -77.390625 4.773438 -78.09375 6.109375 -78.71875 C 7.992188 -79.664062 10.65625 -79.941406 14.09375 -79.546875 C 17.539062 -79.148438 20.554688 -78.210938 23.140625 -76.734375 C 25.578125 -75.398438 27.441406 -73.867188 28.734375 -72.140625 C 30.023438 -70.421875 31.0625 -68.113281 31.84375 -65.21875 C 32.78125 -61.84375 33.425781 -58.3125 33.78125 -54.625 C 34.132812 -50.945312 34.390625 -44.800781 34.546875 -36.1875 C 34.859375 -25.300781 35.050781 -19.503906 35.125 -18.796875 C 35.289062 -17.929688 35.609375 -15.703125 36.078125 -12.109375 C 36.460938 -9.359375 36.65625 -7.691406 36.65625 -7.109375 C 36.65625 -6.523438 36.421875 -5.914062 35.953125 -5.28125 C 35.085938 -4.113281 33.476562 -3.332031 31.125 -2.9375 C 28.78125 -2.539062 26.195312 -2.617188 23.375 -3.171875 C 20.007812 -3.796875 17.035156 -4.851562 14.453125 -6.34375 Z M 14.453125 -6.34375 "/></g></g></g><g fill="#000000" fill-opacity="0.502"><g transform="translate(435.842396, 233.530967)"><g><path d="M 72.84375 -52.046875 C 74.019531 -42.804688 74.609375 -31.878906 74.609375 -19.265625 C 74.609375 -12.054688 74.296875 -7.945312 73.671875 -6.9375 C 73.203125 -6.382812 72.457031 -5.910156 71.4375 -5.515625 C 70.5 -5.203125 68.265625 -4.910156 64.734375 -4.640625 C 61.210938 -4.367188 58.039062 -4.269531 55.21875 -4.34375 C 50.757812 -4.425781 47.351562 -5.367188 45 -7.171875 C 44.0625 -7.867188 41.925781 -10.742188 38.59375 -15.796875 C 35.269531 -20.847656 32.078125 -26.039062 29.015625 -31.375 L 27.734375 -33.484375 L 27.96875 -29.25 C 28.195312 -25.882812 28.46875 -21.382812 28.78125 -15.75 C 29.019531 -12.457031 29.097656 -9.96875 29.015625 -8.28125 C 28.941406 -6.59375 28.765625 -5.515625 28.484375 -5.046875 C 28.210938 -4.578125 27.609375 -4.109375 26.671875 -3.640625 C 25.890625 -3.253906 24.710938 -2.941406 23.140625 -2.703125 C 21.578125 -2.460938 20.363281 -2.421875 19.5 -2.578125 C 19.425781 -2.578125 19.210938 -2.613281 18.859375 -2.6875 C 18.503906 -2.769531 18.09375 -2.851562 17.625 -2.9375 C 17.15625 -3.019531 16.722656 -3.097656 16.328125 -3.171875 C 13.984375 -3.640625 11.832031 -4.554688 9.875 -5.921875 C 7.914062 -7.296875 6.703125 -8.769531 6.234375 -10.34375 C 5.910156 -11.363281 5.476562 -14.144531 4.9375 -18.6875 C 4.382812 -22.832031 3.796875 -27.253906 3.171875 -31.953125 C 2.234375 -38.691406 1.976562 -47.191406 2.40625 -57.453125 C 2.84375 -67.710938 3.6875 -74.097656 4.9375 -76.609375 C 6.8125 -80.285156 10.570312 -81.03125 16.21875 -78.84375 C 18.09375 -78.132812 19.773438 -77.507812 21.265625 -76.96875 C 23.535156 -76.175781 25.179688 -75.347656 26.203125 -74.484375 C 27.222656 -73.628906 28.984375 -71.632812 31.484375 -68.5 C 34.929688 -64.113281 39.082031 -57.804688 43.9375 -49.578125 C 46.289062 -45.660156 47.742188 -43.273438 48.296875 -42.421875 L 49.109375 -41.125 L 48.875 -44.1875 C 48.332031 -50.375 48.078125 -57.144531 48.109375 -64.5 C 48.148438 -71.863281 48.460938 -76.191406 49.046875 -77.484375 C 49.640625 -78.785156 50.9375 -79.570312 52.9375 -79.84375 C 54.9375 -80.113281 57.304688 -79.78125 60.046875 -78.84375 C 65.210938 -77.113281 68.34375 -74.375 69.4375 -70.625 C 70.613281 -66.382812 71.75 -60.191406 72.84375 -52.046875 Z M 72.84375 -52.046875 "/></g></g></g><g fill="#000000" fill-opacity="0.502"><g transform="translate(512.68247, 233.530967)"><g><path d="M 10.8125 -4.578125 C 7.988281 -6.535156 5.675781 -9.828125 3.875 -14.453125 C 1.84375 -19.390625 0.863281 -24.320312 0.9375 -29.25 C 1.019531 -34.1875 2.117188 -40.613281 4.234375 -48.53125 C 6.972656 -58.632812 9.988281 -66.269531 13.28125 -71.4375 C 16.570312 -76.601562 20.601562 -80.128906 25.375 -82.015625 C 27.101562 -82.640625 29.882812 -82.992188 33.71875 -83.078125 C 36.457031 -83.148438 38.375 -83.128906 39.46875 -83.015625 C 40.570312 -82.898438 42.492188 -82.488281 45.234375 -81.78125 C 53.617188 -79.664062 60.492188 -75.925781 65.859375 -70.5625 C 71.222656 -65.195312 75.273438 -58.046875 78.015625 -49.109375 C 81.546875 -37.359375 82.914062 -26.082031 82.125 -15.28125 C 81.582031 -9.09375 80.898438 -5.078125 80.078125 -3.234375 C 79.253906 -1.390625 77.507812 -0.191406 74.84375 0.359375 C 72.414062 0.898438 70.03125 0.9375 67.6875 0.46875 C 61.882812 -0.46875 57.457031 -2.304688 54.40625 -5.046875 C 53.300781 -6.066406 52.535156 -7.007812 52.109375 -7.875 C 51.679688 -8.738281 51.46875 -9.910156 51.46875 -11.390625 C 51.46875 -13.117188 51.3125 -14.0625 51 -14.21875 C 50.601562 -14.289062 47.429688 -14.445312 41.484375 -14.6875 L 32.546875 -15.046875 L 32.3125 -11.625 C 32 -8.1875 31.410156 -5.738281 30.546875 -4.28125 C 29.679688 -2.832031 28.191406 -1.851562 26.078125 -1.34375 C 23.960938 -0.84375 21.378906 -0.921875 18.328125 -1.578125 C 15.273438 -2.242188 12.769531 -3.242188 10.8125 -4.578125 Z M 32.1875 -44.1875 L 31.84375 -41.953125 L 34.1875 -42.1875 C 35.832031 -42.414062 38.066406 -42.609375 40.890625 -42.765625 C 43.941406 -42.921875 46.019531 -43.039062 47.125 -43.125 L 48.875 -43.359375 L 48.53125 -44.890625 C 47.664062 -48.015625 46.234375 -51.925781 44.234375 -56.625 C 42.242188 -61.332031 41.007812 -63.6875 40.53125 -63.6875 C 40.21875 -63.6875 39.59375 -63.019531 38.65625 -61.6875 C 37.71875 -60.351562 36.816406 -58.863281 35.953125 -57.21875 C 35.171875 -55.726562 34.40625 -53.691406 33.65625 -51.109375 C 32.914062 -48.523438 32.425781 -46.21875 32.1875 -44.1875 Z M 32.1875 -44.1875 "/></g></g></g><g fill="#000000" fill-opacity="1"><g transform="translate(37.347763, 235.443842)"><g><path d="M 6.703125 -60.390625 C 4.898438 -61.566406 3.3125 -63.660156 1.9375 -66.671875 C 0.570312 -69.691406 -0.109375 -72.570312 -0.109375 -75.3125 C -0.109375 -77.195312 0.144531 -78.664062 0.65625 -79.71875 C 1.164062 -80.78125 2.046875 -81.644531 3.296875 -82.3125 C 4.546875 -82.976562 6.425781 -83.546875 8.9375 -84.015625 C 11.363281 -84.554688 18.019531 -84.828125 28.90625 -84.828125 C 35.800781 -84.828125 40.460938 -84.769531 42.890625 -84.65625 C 45.316406 -84.539062 47.140625 -84.265625 48.359375 -83.828125 C 49.578125 -83.398438 50.847656 -82.597656 52.171875 -81.421875 C 54.921875 -78.921875 57.054688 -75.257812 58.578125 -70.4375 C 60.109375 -65.625 60.363281 -61.804688 59.34375 -58.984375 C 58.789062 -57.648438 58.257812 -56.847656 57.75 -56.578125 C 57.25 -56.304688 53.316406 -56.171875 45.953125 -56.171875 L 34.78125 -56.171875 L 35.140625 -54.75 C 35.296875 -53.894531 35.570312 -52.332031 35.96875 -50.0625 L 36.4375 -46.640625 L 43.59375 -46.40625 C 48.375 -46.175781 51.351562 -45.90625 52.53125 -45.59375 C 55.113281 -44.882812 57.347656 -42.535156 59.234375 -38.546875 C 60.867188 -35.171875 61.6875 -31.992188 61.6875 -29.015625 C 61.6875 -26.273438 61.101562 -24.59375 59.9375 -23.96875 C 59.226562 -23.570312 53.234375 -22.90625 41.953125 -21.96875 C 40.390625 -21.894531 39.46875 -21.796875 39.1875 -21.671875 C 38.914062 -21.554688 38.820312 -21.265625 38.90625 -20.796875 C 39.0625 -20.171875 39.195312 -17.175781 39.3125 -11.8125 C 39.425781 -6.445312 39.5625 -3.289062 39.71875 -2.34375 C 39.957031 -1.488281 40 -0.707031 39.84375 0 C 39.53125 1.332031 38.097656 2.113281 35.546875 2.34375 C 33.003906 2.582031 30.285156 2.191406 27.390625 1.171875 C 21.273438 -0.859375 17.4375 -3.675781 15.875 -7.28125 C 13.832031 -11.90625 12.265625 -17.035156 11.171875 -22.671875 C 10.234375 -27.054688 9.410156 -30.347656 8.703125 -32.546875 C 8.148438 -34.109375 7.851562 -35.320312 7.8125 -36.1875 C 7.78125 -37.050781 7.921875 -38.460938 8.234375 -40.421875 C 8.234375 -40.890625 8.234375 -44.179688 8.234375 -50.296875 L 8.109375 -59.34375 Z M 6.703125 -60.390625 "/></g></g></g><g fill="#000000" fill-opacity="1"><g transform="translate(99.618761, 235.443842)"><g><path d="M 10.8125 -4.578125 C 7.988281 -6.535156 5.675781 -9.828125 3.875 -14.453125 C 1.84375 -19.390625 0.863281 -24.320312 0.9375 -29.25 C 1.019531 -34.1875 2.117188 -40.613281 4.234375 -48.53125 C 6.972656 -58.632812 9.988281 -66.269531 13.28125 -71.4375 C 16.570312 -76.601562 20.601562 -80.128906 25.375 -82.015625 C 27.101562 -82.640625 29.882812 -82.992188 33.71875 -83.078125 C 36.457031 -83.148438 38.375 -83.128906 39.46875 -83.015625 C 40.570312 -82.898438 42.492188 -82.488281 45.234375 -81.78125 C 53.617188 -79.664062 60.492188 -75.925781 65.859375 -70.5625 C 71.222656 -65.195312 75.273438 -58.046875 78.015625 -49.109375 C 81.546875 -37.359375 82.914062 -26.082031 82.125 -15.28125 C 81.582031 -9.09375 80.898438 -5.078125 80.078125 -3.234375 C 79.253906 -1.390625 77.507812 -0.191406 74.84375 0.359375 C 72.414062 0.898438 70.03125 0.9375 67.6875 0.46875 C 61.882812 -0.46875 57.457031 -2.304688 54.40625 -5.046875 C 53.300781 -6.066406 52.535156 -7.007812 52.109375 -7.875 C 51.679688 -8.738281 51.46875 -9.910156 51.46875 -11.390625 C 51.46875 -13.117188 51.3125 -14.0625 51 -14.21875 C 50.601562 -14.289062 47.429688 -14.445312 41.484375 -14.6875 L 32.546875 -15.046875 L 32.3125 -11.625 C 32 -8.1875 31.410156 -5.738281 30.546875 -4.28125 C 29.679688 -2.832031 28.191406 -1.851562 26.078125 -1.34375 C 23.960938 -0.84375 21.378906 -0.921875 18.328125 -1.578125 C 15.273438 -2.242188 12.769531 -3.242188 10.8125 -4.578125 Z M 32.1875 -44.1875 L 31.84375 -41.953125 L 34.1875 -42.1875 C 35.832031 -42.414062 38.066406 -42.609375 40.890625 -42.765625 C 43.941406 -42.921875 46.019531 -43.039062 47.125 -43.125 L 48.875 -43.359375 L 48.53125 -44.890625 C 47.664062 -48.015625 46.234375 -51.925781 44.234375 -56.625 C 42.242188 -61.332031 41.007812 -63.6875 40.53125 -63.6875 C 40.21875 -63.6875 39.59375 -63.019531 38.65625 -61.6875 C 37.71875 -60.351562 36.816406 -58.863281 35.953125 -57.21875 C 35.171875 -55.726562 34.40625 -53.691406 33.65625 -51.109375 C 32.914062 -48.523438 32.425781 -46.21875 32.1875 -44.1875 Z M 32.1875 -44.1875 "/></g></g></g><g fill="#000000" fill-opacity="1"><g transform="translate(183.155907, 235.443842)"><g><path d="M 8.234375 -80.953125 C 12.222656 -82.441406 17.195312 -83.1875 23.15625 -83.1875 C 37.570312 -83.1875 48.734375 -77.429688 56.640625 -65.921875 C 68.078125 -49.472656 65.414062 -36.625 48.65625 -27.375 L 46.421875 -26.078125 L 51.59375 -22.796875 C 56.6875 -19.503906 60.914062 -16.367188 64.28125 -13.390625 C 65.84375 -11.984375 66.679688 -10.847656 66.796875 -9.984375 C 66.921875 -9.117188 66.359375 -7.984375 65.109375 -6.578125 C 63.066406 -4.390625 60.023438 -2.664062 55.984375 -1.40625 C 51.953125 -0.15625 48.84375 0.0351562 46.65625 -0.828125 C 45.25 -1.367188 41.800781 -4.265625 36.3125 -9.515625 L 31.84375 -13.75 L 32.078125 -8.8125 C 32.316406 -5.832031 32.257812 -3.796875 31.90625 -2.703125 C 31.550781 -1.609375 30.75 -0.75 29.5 -0.125 C 28.476562 0.351562 26.890625 0.628906 24.734375 0.703125 C 22.585938 0.785156 20.691406 0.628906 19.046875 0.234375 C 13.710938 -0.941406 10.300781 -3.019531 8.8125 -6 C 8.425781 -6.78125 8 -8.695312 7.53125 -11.75 C 7.132812 -14.644531 6.859375 -16.445312 6.703125 -17.15625 C 6.546875 -17.78125 6.113281 -23.457031 5.40625 -34.1875 C 4.238281 -51.96875 4.003906 -61.800781 4.703125 -63.6875 C 4.941406 -64.394531 4.59375 -65.296875 3.65625 -66.390625 C 0.59375 -69.910156 0.117188 -73.28125 2.234375 -76.5 C 2.703125 -77.125 3.113281 -77.628906 3.46875 -78.015625 C 3.820312 -78.410156 4.234375 -78.785156 4.703125 -79.140625 C 5.171875 -79.492188 5.679688 -79.804688 6.234375 -80.078125 C 6.785156 -80.347656 7.453125 -80.640625 8.234375 -80.953125 Z M 27.859375 -62.75 C 24.878906 -62.75 23.390625 -62.550781 23.390625 -62.15625 C 23.460938 -62.082031 23.617188 -61.96875 23.859375 -61.8125 C 24.878906 -61.175781 25.9375 -57.414062 27.03125 -50.53125 C 27.738281 -46.457031 28.09375 -44.300781 28.09375 -44.0625 C 28.09375 -43.664062 28.835938 -43.820312 30.328125 -44.53125 C 30.640625 -44.6875 31.109375 -44.921875 31.734375 -45.234375 C 32.910156 -45.785156 34.144531 -46.488281 35.4375 -47.34375 C 36.726562 -48.207031 37.878906 -49.109375 38.890625 -50.046875 C 39.910156 -50.992188 40.695312 -51.894531 41.25 -52.75 C 43.363281 -55.882812 44.34375 -58.003906 44.1875 -59.109375 C 44.101562 -59.648438 43.238281 -60.210938 41.59375 -60.796875 C 39.957031 -61.390625 37.863281 -61.863281 35.3125 -62.21875 C 32.769531 -62.570312 30.285156 -62.75 27.859375 -62.75 Z M 27.859375 -62.75 "/></g></g></g><g fill="#000000" fill-opacity="1"><g transform="translate(250.126628, 235.443842)"><g><path d="M 10.8125 -4.578125 C 7.988281 -6.535156 5.675781 -9.828125 3.875 -14.453125 C 1.84375 -19.390625 0.863281 -24.320312 0.9375 -29.25 C 1.019531 -34.1875 2.117188 -40.613281 4.234375 -48.53125 C 6.972656 -58.632812 9.988281 -66.269531 13.28125 -71.4375 C 16.570312 -76.601562 20.601562 -80.128906 25.375 -82.015625 C 27.101562 -82.640625 29.882812 -82.992188 33.71875 -83.078125 C 36.457031 -83.148438 38.375 -83.128906 39.46875 -83.015625 C 40.570312 -82.898438 42.492188 -82.488281 45.234375 -81.78125 C 53.617188 -79.664062 60.492188 -75.925781 65.859375 -70.5625 C 71.222656 -65.195312 75.273438 -58.046875 78.015625 -49.109375 C 81.546875 -37.359375 82.914062 -26.082031 82.125 -15.28125 C 81.582031 -9.09375 80.898438 -5.078125 80.078125 -3.234375 C 79.253906 -1.390625 77.507812 -0.191406 74.84375 0.359375 C 72.414062 0.898438 70.03125 0.9375 67.6875 0.46875 C 61.882812 -0.46875 57.457031 -2.304688 54.40625 -5.046875 C 53.300781 -6.066406 52.535156 -7.007812 52.109375 -7.875 C 51.679688 -8.738281 51.46875 -9.910156 51.46875 -11.390625 C 51.46875 -13.117188 51.3125 -14.0625 51 -14.21875 C 50.601562 -14.289062 47.429688 -14.445312 41.484375 -14.6875 L 32.546875 -15.046875 L 32.3125 -11.625 C 32 -8.1875 31.410156 -5.738281 30.546875 -4.28125 C 29.679688 -2.832031 28.191406 -1.851562 26.078125 -1.34375 C 23.960938 -0.84375 21.378906 -0.921875 18.328125 -1.578125 C 15.273438 -2.242188 12.769531 -3.242188 10.8125 -4.578125 Z M 32.1875 -44.1875 L 31.84375 -41.953125 L 34.1875 -42.1875 C 35.832031 -42.414062 38.066406 -42.609375 40.890625 -42.765625 C 43.941406 -42.921875 46.019531 -43.039062 47.125 -43.125 L 48.875 -43.359375 L 48.53125 -44.890625 C 47.664062 -48.015625 46.234375 -51.925781 44.234375 -56.625 C 42.242188 -61.332031 41.007812 -63.6875 40.53125 -63.6875 C 40.21875 -63.6875 39.59375 -63.019531 38.65625 -61.6875 C 37.71875 -60.351562 36.816406 -58.863281 35.953125 -57.21875 C 35.171875 -55.726562 34.40625 -53.691406 33.65625 -51.109375 C 32.914062 -48.523438 32.425781 -46.21875 32.1875 -44.1875 Z M 32.1875 -44.1875 "/></g></g></g><g fill="#000000" fill-opacity="1"><g transform="translate(333.663774, 235.443842)"><g><path d="M 6.59375 -60.390625 C 4.789062 -61.566406 3.203125 -63.660156 1.828125 -66.671875 C 0.453125 -69.691406 -0.234375 -72.570312 -0.234375 -75.3125 C -0.234375 -77.976562 0.375 -79.898438 1.59375 -81.078125 C 2.8125 -82.253906 5.21875 -83.234375 8.8125 -84.015625 C 11.25 -84.554688 17.910156 -84.828125 28.796875 -84.828125 C 35.691406 -84.828125 40.351562 -84.769531 42.78125 -84.65625 C 45.207031 -84.539062 47.023438 -84.265625 48.234375 -83.828125 C 49.453125 -83.398438 50.726562 -82.597656 52.0625 -81.421875 C 54.800781 -78.921875 56.929688 -75.257812 58.453125 -70.4375 C 59.984375 -65.625 60.242188 -61.804688 59.234375 -58.984375 C 58.679688 -57.648438 58.148438 -56.847656 57.640625 -56.578125 C 57.128906 -56.304688 53.191406 -56.171875 45.828125 -56.171875 L 34.671875 -56.171875 L 35.015625 -54.75 C 35.171875 -53.894531 35.445312 -52.332031 35.84375 -50.0625 L 36.3125 -46.640625 L 43.484375 -46.40625 C 48.265625 -46.175781 51.238281 -45.90625 52.40625 -45.59375 C 55 -44.882812 57.234375 -42.535156 59.109375 -38.546875 C 60.753906 -35.171875 61.578125 -31.992188 61.578125 -29.015625 C 61.578125 -26.273438 60.988281 -24.59375 59.8125 -23.96875 C 59.101562 -23.570312 53.113281 -22.90625 41.84375 -21.96875 C 39.800781 -21.8125 38.78125 -21.578125 38.78125 -21.265625 L 38.78125 -20.796875 C 38.9375 -20.171875 39.070312 -17.175781 39.1875 -11.8125 C 39.3125 -6.445312 39.453125 -3.289062 39.609375 -2.34375 C 39.835938 -1.488281 39.875 -0.707031 39.71875 0 C 39.40625 1.332031 37.972656 2.113281 35.421875 2.34375 C 32.878906 2.582031 30.160156 2.191406 27.265625 1.171875 C 21.160156 -0.859375 17.320312 -3.675781 15.75 -7.28125 C 13.71875 -11.90625 12.148438 -17.035156 11.046875 -22.671875 C 10.109375 -27.054688 9.285156 -30.347656 8.578125 -32.546875 C 8.035156 -34.109375 7.742188 -35.320312 7.703125 -36.1875 C 7.660156 -37.050781 7.796875 -38.460938 8.109375 -40.421875 C 8.109375 -40.890625 8.109375 -44.179688 8.109375 -50.296875 L 8 -59.34375 Z M 6.59375 -60.390625 "/></g></g></g><g fill="#000000" fill-opacity="1"><g transform="translate(395.934773, 235.443842)"><g><path d="M 14.453125 -6.34375 C 11.867188 -7.832031 10.046875 -9.535156 8.984375 -11.453125 C 7.929688 -13.367188 6.796875 -17.144531 5.578125 -22.78125 C 4.367188 -28.425781 3.488281 -33.914062 2.9375 -39.25 C 2.539062 -43.632812 2.265625 -49.800781 2.109375 -57.75 C 1.953125 -65.695312 1.992188 -70.648438 2.234375 -72.609375 C 2.546875 -74.492188 2.9375 -75.828125 3.40625 -76.609375 C 3.875 -77.390625 4.773438 -78.09375 6.109375 -78.71875 C 7.992188 -79.664062 10.65625 -79.941406 14.09375 -79.546875 C 17.539062 -79.148438 20.554688 -78.210938 23.140625 -76.734375 C 25.578125 -75.398438 27.441406 -73.867188 28.734375 -72.140625 C 30.023438 -70.421875 31.0625 -68.113281 31.84375 -65.21875 C 32.78125 -61.84375 33.425781 -58.3125 33.78125 -54.625 C 34.132812 -50.945312 34.390625 -44.800781 34.546875 -36.1875 C 34.859375 -25.300781 35.050781 -19.503906 35.125 -18.796875 C 35.289062 -17.929688 35.609375 -15.703125 36.078125 -12.109375 C 36.460938 -9.359375 36.65625 -7.691406 36.65625 -7.109375 C 36.65625 -6.523438 36.421875 -5.914062 35.953125 -5.28125 C 35.085938 -4.113281 33.476562 -3.332031 31.125 -2.9375 C 28.78125 -2.539062 26.195312 -2.617188 23.375 -3.171875 C 20.007812 -3.796875 17.035156 -4.851562 14.453125 -6.34375 Z M 14.453125 -6.34375 "/></g></g></g><g fill="#000000" fill-opacity="1"><g transform="translate(434.237306, 235.443842)"><g><path d="M 72.84375 -52.046875 C 74.019531 -42.804688 74.609375 -31.878906 74.609375 -19.265625 C 74.609375 -12.054688 74.296875 -7.945312 73.671875 -6.9375 C 73.203125 -6.382812 72.457031 -5.910156 71.4375 -5.515625 C 70.5 -5.203125 68.265625 -4.910156 64.734375 -4.640625 C 61.210938 -4.367188 58.039062 -4.269531 55.21875 -4.34375 C 50.757812 -4.425781 47.351562 -5.367188 45 -7.171875 C 44.0625 -7.867188 41.925781 -10.742188 38.59375 -15.796875 C 35.269531 -20.847656 32.078125 -26.039062 29.015625 -31.375 L 27.734375 -33.484375 L 27.96875 -29.25 C 28.195312 -25.882812 28.46875 -21.382812 28.78125 -15.75 C 29.019531 -12.457031 29.097656 -9.96875 29.015625 -8.28125 C 28.941406 -6.59375 28.765625 -5.515625 28.484375 -5.046875 C 28.210938 -4.578125 27.609375 -4.109375 26.671875 -3.640625 C 25.890625 -3.253906 24.710938 -2.941406 23.140625 -2.703125 C 21.578125 -2.460938 20.363281 -2.421875 19.5 -2.578125 C 19.425781 -2.578125 19.210938 -2.613281 18.859375 -2.6875 C 18.503906 -2.769531 18.09375 -2.851562 17.625 -2.9375 C 17.15625 -3.019531 16.722656 -3.097656 16.328125 -3.171875 C 13.984375 -3.640625 11.832031 -4.554688 9.875 -5.921875 C 7.914062 -7.296875 6.703125 -8.769531 6.234375 -10.34375 C 5.910156 -11.363281 5.476562 -14.144531 4.9375 -18.6875 C 4.382812 -22.832031 3.796875 -27.253906 3.171875 -31.953125 C 2.234375 -38.691406 1.976562 -47.191406 2.40625 -57.453125 C 2.84375 -67.710938 3.6875 -74.097656 4.9375 -76.609375 C 6.8125 -80.285156 10.570312 -81.03125 16.21875 -78.84375 C 18.09375 -78.132812 19.773438 -77.507812 21.265625 -76.96875 C 23.535156 -76.175781 25.179688 -75.347656 26.203125 -74.484375 C 27.222656 -73.628906 28.984375 -71.632812 31.484375 -68.5 C 34.929688 -64.113281 39.082031 -57.804688 43.9375 -49.578125 C 46.289062 -45.660156 47.742188 -43.273438 48.296875 -42.421875 L 49.109375 -41.125 L 48.875 -44.1875 C 48.332031 -50.375 48.078125 -57.144531 48.109375 -64.5 C 48.148438 -71.863281 48.460938 -76.191406 49.046875 -77.484375 C 49.640625 -78.785156 50.9375 -79.570312 52.9375 -79.84375 C 54.9375 -80.113281 57.304688 -79.78125 60.046875 -78.84375 C 65.210938 -77.113281 68.34375 -74.375 69.4375 -70.625 C 70.613281 -66.382812 71.75 -60.191406 72.84375 -52.046875 Z M 72.84375 -52.046875 "/></g></g></g><g fill="#000000" fill-opacity="1"><g transform="translate(511.07738, 235.443842)"><g><path d="M 10.8125 -4.578125 C 7.988281 -6.535156 5.675781 -9.828125 3.875 -14.453125 C 1.84375 -19.390625 0.863281 -24.320312 0.9375 -29.25 C 1.019531 -34.1875 2.117188 -40.613281 4.234375 -48.53125 C 6.972656 -58.632812 9.988281 -66.269531 13.28125 -71.4375 C 16.570312 -76.601562 20.601562 -80.128906 25.375 -82.015625 C 27.101562 -82.640625 29.882812 -82.992188 33.71875 -83.078125 C 36.457031 -83.148438 38.375 -83.128906 39.46875 -83.015625 C 40.570312 -82.898438 42.492188 -82.488281 45.234375 -81.78125 C 53.617188 -79.664062 60.492188 -75.925781 65.859375 -70.5625 C 71.222656 -65.195312 75.273438 -58.046875 78.015625 -49.109375 C 81.546875 -37.359375 82.914062 -26.082031 82.125 -15.28125 C 81.582031 -9.09375 80.898438 -5.078125 80.078125 -3.234375 C 79.253906 -1.390625 77.507812 -0.191406 74.84375 0.359375 C 72.414062 0.898438 70.03125 0.9375 67.6875 0.46875 C 61.882812 -0.46875 57.457031 -2.304688 54.40625 -5.046875 C 53.300781 -6.066406 52.535156 -7.007812 52.109375 -7.875 C 51.679688 -8.738281 51.46875 -9.910156 51.46875 -11.390625 C 51.46875 -13.117188 51.3125 -14.0625 51 -14.21875 C 50.601562 -14.289062 47.429688 -14.445312 41.484375 -14.6875 L 32.546875 -15.046875 L 32.3125 -11.625 C 32 -8.1875 31.410156 -5.738281 30.546875 -4.28125 C 29.679688 -2.832031 28.191406 -1.851562 26.078125 -1.34375 C 23.960938 -0.84375 21.378906 -0.921875 18.328125 -1.578125 C 15.273438 -2.242188 12.769531 -3.242188 10.8125 -4.578125 Z M 32.1875 -44.1875 L 31.84375 -41.953125 L 34.1875 -42.1875 C 35.832031 -42.414062 38.066406 -42.609375 40.890625 -42.765625 C 43.941406 -42.921875 46.019531 -43.039062 47.125 -43.125 L 48.875 -43.359375 L 48.53125 -44.890625 C 47.664062 -48.015625 46.234375 -51.925781 44.234375 -56.625 C 42.242188 -61.332031 41.007812 -63.6875 40.53125 -63.6875 C 40.21875 -63.6875 39.59375 -63.019531 38.65625 -61.6875 C 37.71875 -60.351562 36.816406 -58.863281 35.953125 -57.21875 C 35.171875 -55.726562 34.40625 -53.691406 33.65625 -51.109375 C 32.914062 -48.523438 32.425781 -46.21875 32.1875 -44.1875 Z M 32.1875 -44.1875 "/></g></g></g><g fill="#000000" fill-opacity="0.302"><g transform="translate(597.835957, 231.618095)"><g/></g></g><g fill="#000000" fill-opacity="0.502"><g transform="translate(596.230867, 233.530967)"><g/></g></g><g fill="#000000" fill-opacity="1"><g transform="translate(594.625777, 235.443842)"><g/></g></g><g clip-path="url(#ae6d297a53)"><g clip-path="url(#9cd2ed0d81)"><path fill="#2c83f5" d="M 384 88.472656 L 444.511719 88.472656 L 444.511719 149.21875 L 384 149.21875 Z M 384 88.472656 " fill-opacity="1" fill-rule="nonzero"/></g></g><g clip-path="url(#02a133d98d)"><g clip-path="url(#9a35ad6a4c)"><path fill="#000000" d="M 283.527344 162.253906 L 320.21875 162.253906 L 320.21875 203.671875 L 283.527344 203.671875 Z M 283.527344 162.253906 " fill-opacity="1" fill-rule="nonzero"/></g></g><g clip-path="url(#5dd3705945)"><g clip-path="url(#d4cf9d3152)"><path fill="#000000" d="M 189.769531 158.089844 L 238.546875 158.089844 L 238.546875 207.820312 L 189.769531 207.820312 Z M 189.769531 158.089844 " fill-opacity="1" fill-rule="nonzero"/></g></g><g clip-path="url(#8bbe19841f)"><g clip-path="url(#aa222098db)"><path fill="#000000" d="M 105.519531 158.089844 L 171.851562 158.089844 L 171.851562 224.421875 L 105.519531 224.421875 Z M 105.519531 158.089844 " fill-opacity="1" fill-rule="nonzero"/></g></g><g clip-path="url(#a451410082)"><path fill="#ffffff" d="M 148.363281 169.851562 C 148.328125 169.867188 148.292969 169.875 148.253906 169.875 C 147.894531 169.863281 147.539062 169.835938 147.183594 169.785156 L 146.914062 169.609375 C 146.914062 169.609375 146.335938 169.519531 146.113281 169.609375 C 145.890625 169.699219 145.265625 170.011719 145.265625 170.011719 C 144.984375 169.933594 144.699219 169.875 144.414062 169.832031 C 144.175781 169.792969 143.949219 169.703125 143.746094 169.566406 L 143.121094 169.566406 C 143.121094 169.566406 142.585938 169.253906 142.363281 169.164062 C 142.175781 169.074219 141.996094 168.96875 141.824219 168.851562 L 141.066406 168.804688 L 140.308594 169.386719 L 140.398438 169.921875 L 139.953125 170.5 C 139.953125 170.5 139.058594 169.875 138.835938 169.832031 C 138.613281 169.785156 138.121094 169.742188 138.121094 169.742188 C 138.121094 169.742188 137.898438 169.339844 137.761719 169.207031 C 137.660156 169.113281 137.539062 169.039062 137.40625 168.984375 C 137.40625 168.984375 135.84375 168.851562 135.664062 168.671875 C 135.488281 168.492188 135.488281 168.625 135.21875 168.269531 C 134.953125 167.914062 134.773438 167.777344 134.996094 167.734375 C 135.21875 167.691406 135.53125 167.644531 135.53125 167.421875 C 135.53125 167.199219 135.132812 167.242188 135.175781 167.019531 C 135.21875 166.796875 135.265625 166.617188 135.265625 166.617188 C 135.265625 166.617188 135.664062 166.707031 135.578125 166.484375 C 135.488281 166.261719 135.085938 166.394531 135.085938 166.394531 C 135.085938 166.394531 135.085938 165.949219 134.820312 165.992188 C 134.550781 166.039062 134.503906 166.21875 134.105469 166.261719 C 133.703125 166.304688 133.792969 166.128906 133.253906 166.21875 C 132.71875 166.304688 132.632812 166.441406 132.40625 166.394531 C 132.269531 166.367188 132.132812 166.320312 132.007812 166.261719 C 132.007812 166.261719 131.15625 166.394531 130.53125 166.484375 C 129.90625 166.574219 129.371094 167.019531 129.371094 167.019531 C 129.371094 167.019531 129.015625 166.886719 128.882812 167.019531 C 128.746094 167.152344 128.257812 167.691406 128.167969 167.554688 C 128.078125 167.421875 127.675781 167.332031 127.675781 167.332031 L 126.960938 167.378906 L 126.648438 167.332031 L 126.46875 167.066406 C 126.46875 167.066406 126.15625 167.019531 125.980469 167.242188 C 125.800781 167.464844 125.578125 168.046875 125.578125 168.046875 L 125.085938 168.449219 L 124.507812 168.492188 L 123.925781 169.25 C 123.925781 169.25 124.015625 170.546875 123.792969 170.769531 C 123.570312 170.992188 122.453125 171.796875 122.183594 171.886719 C 121.917969 171.976562 121.113281 173.226562 121.113281 173.226562 L 120.980469 173.804688 L 120.535156 174.074219 L 119.863281 175.5 L 119.863281 175.992188 C 119.863281 175.992188 120.355469 176.214844 120.355469 176.394531 C 120.355469 176.574219 120.132812 176.839844 120.132812 176.839844 C 120.132812 176.839844 120.535156 177.332031 120.488281 177.464844 C 120.445312 177.601562 120.308594 177.867188 120.308594 177.867188 C 120.308594 177.867188 120.265625 178.3125 120.265625 178.492188 C 120.265625 178.671875 119.730469 179.25 119.730469 179.25 C 119.730469 179.25 120.085938 179.875 120.042969 180.097656 C 120.015625 180.230469 120 180.367188 120 180.5 L 120.265625 180.8125 C 120.265625 180.8125 120.847656 181.617188 120.980469 181.75 C 121.113281 181.886719 121.515625 182.195312 121.515625 182.195312 L 122.007812 182.777344 L 122.183594 183.269531 L 122.898438 183.804688 L 123.210938 184.207031 L 123.746094 184.519531 C 123.964844 184.804688 124.257812 185.019531 124.597656 185.144531 C 125.132812 185.320312 125.445312 185.234375 125.445312 185.234375 C 125.6875 185.0625 125.957031 184.941406 126.246094 184.875 C 126.695312 184.785156 127.988281 184.964844 127.988281 184.964844 L 128.523438 184.964844 C 128.734375 184.984375 128.941406 184.917969 129.105469 184.785156 C 129.371094 184.5625 129.730469 184.292969 129.730469 184.292969 C 129.730469 184.292969 130.355469 184.070312 130.84375 184.070312 C 131.144531 184.070312 131.445312 184.101562 131.738281 184.160156 L 132.363281 184.5625 L 132.496094 185.097656 C 132.632812 185.179688 132.804688 185.179688 132.941406 185.097656 C 133.210938 184.964844 134.191406 185.007812 134.191406 185.007812 L 134.683594 185.457031 C 134.683594 185.457031 134.953125 186.4375 134.820312 186.4375 C 134.683594 186.4375 134.59375 186.617188 134.59375 186.617188 L 134.640625 187.332031 L 134.191406 187.820312 L 134.28125 188.222656 C 134.28125 188.222656 134.730469 188.847656 134.820312 189.070312 C 134.90625 189.292969 135.753906 189.917969 135.753906 189.917969 L 135.980469 190.320312 L 136.113281 190.855469 L 136.113281 191.167969 L 136.695312 192.242188 L 136.601562 192.730469 C 136.601562 192.730469 137.050781 193.714844 137.007812 193.9375 C 136.980469 194.070312 136.980469 194.207031 137.007812 194.339844 C 137.007812 194.339844 136.15625 195.410156 136.113281 195.542969 C 136.03125 195.925781 135.988281 196.3125 135.980469 196.703125 L 135.980469 198 C 135.980469 198 137.316406 199.917969 137.316406 200.097656 C 137.316406 200.273438 137.363281 201.617188 137.363281 201.617188 C 137.363281 201.617188 137.628906 202.640625 137.71875 202.863281 C 137.808594 203.089844 138.613281 203.890625 138.613281 203.890625 L 138.835938 204.695312 L 139.015625 205.277344 C 139.015625 205.277344 139.460938 205.722656 139.460938 205.945312 C 139.460938 206.167969 139.191406 206.570312 139.191406 206.570312 L 139.59375 207.238281 L 140.308594 207.773438 C 140.308594 207.773438 141.246094 207.375 141.515625 207.375 C 141.78125 207.375 143.164062 207.328125 143.164062 207.328125 L 143.703125 207.195312 L 144.328125 207.0625 C 144.328125 207.0625 146.15625 205.5 146.289062 205.140625 C 146.410156 204.859375 146.5625 204.589844 146.738281 204.339844 L 147.359375 203.847656 L 147.496094 203.042969 L 147.628906 202.730469 L 147.449219 202.375 L 147.71875 201.972656 L 148.835938 201.390625 L 148.921875 200.277344 C 148.921875 200.277344 148.65625 199.160156 148.65625 198.9375 C 148.65625 198.714844 148.96875 198.625 148.96875 198.625 C 148.96875 198.625 149.726562 197.730469 150.039062 197.597656 C 150.355469 197.464844 151.515625 196.617188 151.691406 196.4375 C 151.871094 196.257812 151.738281 195.367188 151.738281 195.367188 L 151.648438 193.535156 L 151.199219 192.730469 L 151.113281 191.660156 L 150.84375 191.125 L 150.890625 190.457031 L 151.246094 189.964844 C 151.246094 189.964844 151.515625 189.339844 151.738281 189.117188 C 151.960938 188.894531 152.40625 188.445312 152.988281 187.957031 C 153.566406 187.464844 154.503906 186.527344 154.726562 186.347656 C 154.949219 186.171875 156.289062 184.160156 156.511719 183.847656 C 156.734375 183.539062 157.136719 182.554688 157.316406 182.285156 C 157.445312 182.074219 157.550781 181.851562 157.628906 181.617188 L 157.539062 181.082031 C 157.539062 181.082031 157.316406 181.125 157.050781 181.171875 C 156.78125 181.214844 156.066406 181.4375 155.710938 181.484375 C 155.351562 181.527344 154.550781 181.527344 154.550781 181.527344 L 154.015625 181.929688 L 153.523438 181.4375 L 153.074219 181.527344 L 152.851562 181.171875 L 153.03125 180.902344 L 152.628906 180.101562 L 151.691406 179.386719 L 151.15625 179.117188 L 151.066406 178.628906 L 150.175781 177.152344 L 149.773438 176.929688 L 149.863281 175.589844 L 149.503906 175.097656 L 148.921875 174.785156 L 149.015625 174.207031 C 149.015625 174.207031 148.121094 173 148.03125 172.824219 C 147.941406 172.644531 147.984375 171.886719 147.984375 171.886719 L 148.253906 171.75 L 148.488281 171.167969 L 148.523438 170.070312 Z M 157.40625 196.636719 L 156.800781 196.773438 C 156.800781 196.773438 156.601562 198.042969 156.402344 198.980469 C 156.199219 199.917969 155.53125 201.925781 155.53125 201.925781 L 154.792969 202.195312 L 153.992188 202.128906 C 153.992188 202.128906 153.457031 201.660156 153.523438 201.257812 C 153.589844 200.855469 153.054688 200.523438 153.054688 200.523438 L 152.917969 199.851562 C 152.917969 199.851562 153.589844 199.382812 153.855469 198.980469 C 154.125 198.582031 153.457031 197.375 153.457031 197.375 C 153.457031 197.375 153.789062 196.707031 153.992188 196.707031 C 154.191406 196.707031 155.464844 195.902344 155.464844 195.902344 C 155.464844 195.902344 155.867188 195.300781 156.132812 195.164062 C 156.402344 195.03125 156.667969 194.429688 156.667969 194.429688 C 157.269531 194.292969 157.40625 196.636719 157.40625 196.636719 " fill-opacity="1" fill-rule="nonzero"/></g><g clip-path="url(#74f54bcce1)"><g clip-path="url(#87b1d56273)"><path fill="#000000" d="M 384 102.136719 L 427.808594 102.136719 L 427.808594 145.945312 L 384 145.945312 Z M 384 102.136719 " fill-opacity="1" fill-rule="nonzero"/></g></g><g clip-path="url(#3cef9bc9c2)"><g clip-path="url(#a40123e108)"><path fill="#000000" d="M 257.355469 158.089844 L 323.683594 158.089844 L 323.683594 224.421875 L 257.355469 224.421875 Z M 257.355469 158.089844 " fill-opacity="1" fill-rule="nonzero"/></g></g><g clip-path="url(#49f2d49e18)"><path fill="#ffffff" d="M 300.199219 169.851562 C 300.164062 169.867188 300.128906 169.875 300.089844 169.875 C 299.730469 169.863281 299.375 169.835938 299.019531 169.785156 L 298.75 169.609375 C 298.75 169.609375 298.171875 169.519531 297.945312 169.609375 C 297.722656 169.699219 297.097656 170.011719 297.097656 170.011719 C 296.820312 169.933594 296.535156 169.875 296.25 169.832031 C 296.011719 169.792969 295.78125 169.703125 295.582031 169.566406 L 294.957031 169.566406 C 294.957031 169.566406 294.421875 169.253906 294.199219 169.164062 C 294.007812 169.074219 293.828125 168.96875 293.660156 168.851562 L 292.902344 168.804688 L 292.144531 169.386719 L 292.234375 169.921875 L 291.789062 170.5 C 291.789062 170.5 290.894531 169.875 290.671875 169.832031 C 290.445312 169.785156 289.957031 169.742188 289.957031 169.742188 C 289.957031 169.742188 289.734375 169.339844 289.597656 169.207031 C 289.492188 169.113281 289.375 169.039062 289.242188 168.984375 C 289.242188 168.984375 287.679688 168.851562 287.5 168.671875 C 287.320312 168.492188 287.324219 168.625 287.054688 168.269531 C 286.785156 167.914062 286.609375 167.777344 286.832031 167.734375 C 287.054688 167.691406 287.367188 167.644531 287.367188 167.421875 C 287.367188 167.199219 286.964844 167.242188 287.011719 167.019531 C 287.054688 166.796875 287.097656 166.617188 287.097656 166.617188 C 287.097656 166.617188 287.5 166.707031 287.414062 166.484375 C 287.324219 166.261719 286.921875 166.394531 286.921875 166.394531 C 286.921875 166.394531 286.921875 165.949219 286.652344 165.992188 C 286.386719 166.039062 286.339844 166.21875 285.941406 166.261719 C 285.535156 166.304688 285.625 166.128906 285.089844 166.21875 C 284.554688 166.304688 284.464844 166.441406 284.242188 166.394531 C 284.105469 166.367188 283.96875 166.320312 283.839844 166.261719 C 283.839844 166.261719 282.992188 166.394531 282.367188 166.484375 C 281.742188 166.574219 281.207031 167.019531 281.207031 167.019531 C 281.207031 167.019531 280.851562 166.886719 280.714844 167.019531 C 280.582031 167.152344 280.089844 167.691406 280 167.554688 C 279.914062 167.421875 279.511719 167.332031 279.511719 167.332031 L 278.796875 167.378906 L 278.484375 167.332031 L 278.304688 167.066406 C 278.304688 167.066406 277.992188 167.019531 277.816406 167.242188 C 277.636719 167.464844 277.414062 168.046875 277.414062 168.046875 L 276.921875 168.449219 L 276.339844 168.492188 L 275.761719 169.25 C 275.761719 169.25 275.851562 170.546875 275.628906 170.769531 C 275.40625 170.992188 274.289062 171.796875 274.019531 171.886719 C 273.753906 171.976562 272.949219 173.226562 272.949219 173.226562 L 272.816406 173.804688 L 272.367188 174.074219 L 271.699219 175.5 L 271.699219 175.992188 C 271.699219 175.992188 272.191406 176.214844 272.191406 176.394531 C 272.191406 176.574219 271.964844 176.839844 271.964844 176.839844 C 271.964844 176.839844 272.367188 177.332031 272.324219 177.464844 C 272.277344 177.601562 272.144531 177.867188 272.144531 177.867188 C 272.144531 177.867188 272.101562 178.3125 272.101562 178.492188 C 272.101562 178.671875 271.566406 179.25 271.566406 179.25 C 271.566406 179.25 271.921875 179.875 271.878906 180.097656 C 271.851562 180.230469 271.835938 180.367188 271.832031 180.5 L 272.101562 180.8125 C 272.101562 180.8125 272.679688 181.617188 272.816406 181.75 C 272.949219 181.886719 273.351562 182.195312 273.351562 182.195312 L 273.84375 182.777344 L 274.019531 183.269531 L 274.734375 183.804688 L 275.046875 184.207031 L 275.582031 184.519531 C 275.800781 184.804688 276.09375 185.019531 276.429688 185.144531 C 276.96875 185.320312 277.277344 185.234375 277.277344 185.234375 C 277.519531 185.0625 277.792969 184.941406 278.082031 184.875 C 278.53125 184.785156 279.824219 184.964844 279.824219 184.964844 L 280.359375 184.964844 C 280.570312 184.984375 280.777344 184.917969 280.9375 184.785156 C 281.207031 184.5625 281.5625 184.292969 281.5625 184.292969 C 281.5625 184.292969 282.191406 184.070312 282.679688 184.070312 C 282.980469 184.070312 283.277344 184.101562 283.574219 184.160156 L 284.199219 184.5625 L 284.332031 185.097656 C 284.46875 185.179688 284.640625 185.179688 284.777344 185.097656 C 285.046875 184.964844 286.027344 185.007812 286.027344 185.007812 L 286.519531 185.457031 C 286.519531 185.457031 286.789062 186.4375 286.652344 186.4375 C 286.519531 186.4375 286.429688 186.617188 286.429688 186.617188 L 286.472656 187.332031 L 286.027344 187.820312 L 286.117188 188.222656 C 286.117188 188.222656 286.5625 188.847656 286.652344 189.070312 C 286.742188 189.292969 287.589844 189.917969 287.589844 189.917969 L 287.8125 190.320312 L 287.949219 190.855469 L 287.949219 191.167969 L 288.527344 192.242188 L 288.4375 192.730469 C 288.4375 192.730469 288.886719 193.714844 288.839844 193.9375 C 288.8125 194.070312 288.8125 194.207031 288.839844 194.339844 C 288.839844 194.339844 287.992188 195.410156 287.949219 195.542969 C 287.867188 195.925781 287.824219 196.3125 287.8125 196.703125 L 287.8125 198 C 287.8125 198 289.152344 199.917969 289.152344 200.097656 C 289.152344 200.273438 289.199219 201.617188 289.199219 201.617188 C 289.199219 201.617188 289.464844 202.640625 289.554688 202.863281 C 289.644531 203.089844 290.445312 203.890625 290.445312 203.890625 L 290.671875 204.695312 L 290.847656 205.277344 C 290.847656 205.277344 291.296875 205.722656 291.296875 205.945312 C 291.296875 206.167969 291.027344 206.570312 291.027344 206.570312 L 291.429688 207.238281 L 292.144531 207.773438 C 292.144531 207.773438 293.082031 207.375 293.347656 207.375 C 293.617188 207.375 295 207.328125 295 207.328125 L 295.535156 207.195312 L 296.160156 207.0625 C 296.160156 207.0625 297.992188 205.5 298.125 205.140625 C 298.246094 204.859375 298.398438 204.589844 298.570312 204.339844 L 299.195312 203.847656 L 299.332031 203.042969 L 299.464844 202.730469 L 299.285156 202.375 L 299.554688 201.972656 L 300.667969 201.390625 L 300.757812 200.277344 C 300.757812 200.277344 300.492188 199.160156 300.492188 198.9375 C 300.492188 198.714844 300.804688 198.625 300.804688 198.625 C 300.804688 198.625 301.5625 197.730469 301.875 197.597656 C 302.1875 197.464844 303.347656 196.617188 303.527344 196.4375 C 303.707031 196.257812 303.570312 195.367188 303.570312 195.367188 L 303.480469 193.535156 L 303.035156 192.730469 L 302.945312 191.660156 L 302.679688 191.125 L 302.722656 190.457031 L 303.082031 189.964844 C 303.082031 189.964844 303.347656 189.339844 303.570312 189.117188 C 303.792969 188.894531 304.242188 188.445312 304.820312 187.957031 C 305.402344 187.464844 306.339844 186.527344 306.5625 186.347656 C 306.785156 186.171875 308.125 184.160156 308.347656 183.847656 C 308.570312 183.539062 308.972656 182.554688 309.152344 182.285156 C 309.28125 182.074219 309.382812 181.851562 309.464844 181.617188 L 309.375 181.082031 C 309.375 181.082031 309.152344 181.125 308.882812 181.171875 C 308.617188 181.214844 307.902344 181.4375 307.542969 181.484375 C 307.1875 181.527344 306.382812 181.527344 306.382812 181.527344 L 305.847656 181.929688 L 305.359375 181.4375 L 304.910156 181.527344 L 304.6875 181.171875 L 304.867188 180.902344 L 304.464844 180.101562 L 303.527344 179.386719 L 302.992188 179.117188 L 302.902344 178.628906 L 302.011719 177.152344 L 301.609375 176.929688 L 301.695312 175.589844 L 301.339844 175.097656 L 300.757812 174.785156 L 300.847656 174.207031 C 300.847656 174.207031 299.957031 173 299.867188 172.824219 C 299.777344 172.644531 299.820312 171.886719 299.820312 171.886719 L 300.089844 171.75 L 300.320312 171.167969 L 300.359375 170.070312 Z M 309.242188 196.636719 L 308.636719 196.773438 C 308.636719 196.773438 308.4375 198.042969 308.234375 198.980469 C 308.035156 199.917969 307.367188 201.925781 307.367188 201.925781 L 306.628906 202.195312 L 305.824219 202.128906 C 305.824219 202.128906 305.289062 201.660156 305.359375 201.257812 C 305.425781 200.855469 304.886719 200.523438 304.886719 200.523438 L 304.753906 199.851562 C 304.753906 199.851562 305.425781 199.382812 305.691406 198.980469 C 305.960938 198.582031 305.289062 197.375 305.289062 197.375 C 305.289062 197.375 305.625 196.707031 305.828125 196.707031 C 306.027344 196.707031 307.300781 195.902344 307.300781 195.902344 C 307.300781 195.902344 307.699219 195.300781 307.96875 195.164062 C 308.234375 195.03125 308.503906 194.429688 308.503906 194.429688 C 309.105469 194.292969 309.242188 196.636719 309.242188 196.636719 " fill-opacity="1" fill-rule="nonzero"/></g></svg>