<?xml version="1.0" encoding="UTF-8"?> <svg xmlns="http://www.w3.org/2000/svg" fill="none" viewBox="0 0 238 108"><path d="M224.291 49.115a9.27 9.27 0 0 0 1.185-.079 13.92 13.92 0 0 0 1.264-.218c.421-.09.818-.203 1.185-.337a5.54 5.54 0 0 0 .947-.436c1.081-.74 1.889-1.785 2.429-3.139.541-1.353.809-2.915.809-4.68 0-1.394-.159-2.658-.476-3.793-.318-1.13-.804-2.093-1.463-2.881-.739-.868-1.681-1.463-2.826-1.775a12.606 12.606 0 0 0-3.377-.476h-4.581v17.81h4.899l.005.005Zm-10.626 5.058v-27.96h10.308a23.2 23.2 0 0 1 3.952.338c1.289.223 2.529.655 3.714 1.284 2.107 1.081 3.693 2.673 4.759 4.78 1.066 2.107 1.602 4.646 1.602 7.62 0 4.502-1.165 7.953-3.496 10.348-2.33 2.395-5.746 3.595-10.248 3.595H213.67l-.005-.005Zm-21.007-10.388h8.136l-4.026-11.532-4.105 11.532h-.005Zm-1.661 5.053-2.013 5.33h-6.237l10.818-27.959h6.476l10.664 27.959h-6.277l-1.933-5.33h-11.498Zm-9.673-22.629v5.097h-14.255v6.515h12.44v5.097h-12.44v6.197h14.255v5.058h-19.982v-27.96h19.982v-.004ZM137.33 37.821h12.361V26.209h5.726v27.959h-5.726V42.913H137.33v11.255h-5.726V26.209h5.726v11.612Zm-26.734 5.965h8.136l-4.026-11.533-4.105 11.532h-.005Zm-1.661 5.052-2.013 5.33h-6.237l10.818-27.959h6.476l10.665 27.959h-6.277l-1.934-5.33h-11.498Zm27.473 29.089h8.806l-4.418-12.068-4.388 12.068Zm17.046-7.174h-2.504v-1.547h2.504v-.223c0-.695.03-1.31.084-1.84a3.681 3.681 0 0 1 .452-1.448 3.31 3.31 0 0 1 1.423-1.363c.609-.307 1.477-.466 2.603-.466h1.433v1.547h-1.24c-.431 0-.858.034-1.279.099-.422.064-.774.278-1.056.635a2.468 2.468 0 0 0-.491 1.279c-.05.476-.07 1.046-.07 1.7v.085h4.136v1.547h-4.136v13.278h-1.859V70.752Zm8.776 13.278V69.206h1.8l.054 2.558c.338-.56.719-1.021 1.141-1.378a5.06 5.06 0 0 1 1.393-.843 5.986 5.986 0 0 1 1.601-.407 12.382 12.382 0 0 1 1.775-.07v1.692h-.505c-.898 0-1.681.133-2.336.406a4.562 4.562 0 0 0-1.631 1.11c-.6.62-.991 1.315-1.165 2.083a10.703 10.703 0 0 0-.268 2.42v7.258h-1.859v-.004Zm10.635-14.825h1.86V84.03h-1.86V69.206Zm.927-5.345c.412 0 .749.124 1.012.367s.397.57.397.982c0 .411-.134.768-.397 1.01-.263.244-.6.368-1.012.368-.411 0-.743-.124-.996-.367s-.382-.58-.382-1.011c0-.432.124-.764.382-.997.253-.233.585-.352.996-.352Zm11.617 20.338c-1.165 0-2.176-.188-3.039-.56a5.956 5.956 0 0 1-2.167-1.577c-.58-.674-1.016-1.472-1.309-2.39-.292-.917-.436-1.918-.436-3.01 0-1.09.149-2.151.451-3.078.303-.927.749-1.73 1.349-2.405a6.16 6.16 0 0 1 2.221-1.577c.883-.377 1.904-.565 3.064-.565 1.349 0 2.539.327 3.56.987 1.021.654 1.711 1.66 2.068 3.01h-1.884c-.263-.824-.754-1.434-1.478-1.83a4.903 4.903 0 0 0-2.375-.59c-.863 0-1.646.158-2.291.476a4.458 4.458 0 0 0-1.606 1.309 5.741 5.741 0 0 0-.942 1.928 8.526 8.526 0 0 0-.307 2.336c0 .823.104 1.572.307 2.29.208.724.521 1.354.942 1.9.421.545.967.976 1.631 1.293.665.318 1.448.476 2.35.476.903 0 1.706-.168 2.42-.505.714-.338 1.23-.967 1.547-1.884h1.914a5.219 5.219 0 0 1-.898 1.784 5.424 5.424 0 0 1-1.393 1.24 6.075 6.075 0 0 1-1.755.719 8.53 8.53 0 0 1-1.944.223Zm15.39-7.145c-.486 0-1.006.02-1.562.055-.55.04-1.061.144-1.532.322a2.771 2.771 0 0 0-1.165.818c-.307.367-.466.868-.466 1.503 0 .505.099.937.293 1.294a2.8 2.8 0 0 0 .788.902c.327.243.704.422 1.126.536.421.114.857.168 1.309.168.733 0 1.413-.094 2.037-.282a4.47 4.47 0 0 0 1.632-.858 3.858 3.858 0 0 0 1.07-1.433c.253-.57.382-1.24.382-2.008v-1.012h-3.912v-.005Zm3.997 4.84c-.714.862-1.523 1.462-2.435 1.8-.907.337-1.909.505-2.995.505-.654 0-1.289-.08-1.899-.238a4.8 4.8 0 0 1-1.646-.773 3.934 3.934 0 0 1-1.165-1.364c-.292-.555-.436-1.175-.436-1.87 0-.842.159-1.546.476-2.111a3.818 3.818 0 0 1 1.254-1.349 5.22 5.22 0 0 1 1.785-.719 10.106 10.106 0 0 1 2.112-.213h4.864c0-.674-.069-1.314-.213-1.914a4.47 4.47 0 0 0-.689-1.576 3.41 3.41 0 0 0-1.25-1.072c-.515-.262-1.15-.396-1.899-.396-.357 0-.718.03-1.08.084-.367.06-.714.149-1.042.283a3.092 3.092 0 0 0-.902.55c-.273.233-.491.52-.659.858h-2.028c.168-.62.451-1.14.843-1.562a4.932 4.932 0 0 1 1.393-1.041 6.293 6.293 0 0 1 1.715-.575 9.858 9.858 0 0 1 1.815-.169c1.086 0 2.008.179 2.757.536a4.719 4.719 0 0 1 1.814 1.477c.461.63.789 1.364.987 2.206.198.843.298 1.756.298 2.727v8.047h-1.518l-.252-2.136-.005.005Zm-69.003-2.281-1.631 4.418h-2.053l7.428-19.888h2.558l7.398 19.888h-2.053l-1.631-4.418h-10.016Z" fill="#000"></path><path fill-rule="evenodd" clip-rule="evenodd" d="m45.986 105.152 8.395-4.849a34.283 34.283 0 0 1-3.441-26.11c2.28-8.502 7.804-16.138 16.04-20.888a34.255 34.255 0 0 1 17.199-4.616v-9.693L45.986 61.045v44.107Zm31.4-42.932a2.312 2.312 0 1 1 1.196-4.468 2.312 2.312 0 0 1-1.196 4.468Zm-7.338 4.076a2.31 2.31 0 0 1-2.578-2.014 2.311 2.311 0 0 1 2.013-2.578 2.308 2.308 0 0 1 2.578 2.013 2.31 2.31 0 0 1-2.013 2.579Zm-8.597 5.999a2.312 2.312 0 1 1 4.005-2.31 2.312 2.312 0 0 1-4.005 2.31ZM58.828 88.7a2.316 2.316 0 0 1 2.831-1.636 2.314 2.314 0 0 1 1.636 2.831 2.313 2.313 0 0 1-4.467-1.195Zm.228-7.085a2.318 2.318 0 0 1-.401-3.248 2.317 2.317 0 0 1 3.247-.401 2.317 2.317 0 0 1 .402 3.248 2.317 2.317 0 0 1-3.248.401Zm-4.066-6.331C52.987 82.757 53.835 90.992 58 98.21l10.278-5.93a18.304 18.304 0 0 1-1.84-13.932 18.296 18.296 0 0 1 8.558-11.141 18.302 18.302 0 0 1 9.183-2.47v-11.86a29.952 29.952 0 0 0-15.112 4.057c-7.224 4.17-12.073 10.878-14.076 18.35Zm15.5 4.154a14.124 14.124 0 0 0 1.388 10.715l.02.035 12.276-7.085V68.928a14.15 14.15 0 0 0-13.69 10.506l.006.005Z" fill="#2D83F5"></path><path fill-rule="evenodd" clip-rule="evenodd" d="M24.34 58.769c6.222 6.227 10.074 14.83 10.07 24.334a34.277 34.277 0 0 1-4.602 17.205l8.39 4.844V61.05L.004 39v9.703c9.51 0 18.112 3.852 24.334 10.075m-16.505 2.85a2.316 2.316 0 0 1-3.273 0 2.316 2.316 0 0 1 0-3.271 2.316 2.316 0 0 1 3.273 0c.902.902.902 2.37 0 3.272Zm9.034 1.746a2.306 2.306 0 0 1-1.275 3.01 2.31 2.31 0 0 1-3.01-1.275 2.306 2.306 0 0 1 1.275-3.01 2.31 2.31 0 0 1 3.01 1.275Zm6.172 7.77a2.314 2.314 0 0 1-2.31 2.315 2.314 2.314 0 0 1-2.31-2.316 2.31 2.31 0 1 1 4.621 0ZM21.484 87.67a2.316 2.316 0 0 1 3.272 0 2.316 2.316 0 0 1 0 3.272 2.316 2.316 0 0 1-3.272 0 2.316 2.316 0 0 1 0-3.272Zm-3.124-4.562c0 3.347-.892 6.486-2.454 9.188l10.268 5.93a30.017 30.017 0 0 0 4.046-15.113c0-8.34-3.382-15.895-8.855-21.364C15.89 56.275 8.34 52.894.005 52.894v11.864c5.072 0 9.663 2.053 12.985 5.375a18.3 18.3 0 0 1 5.37 12.98v-.005Zm3.262-3.832a2.315 2.315 0 0 1 3.03-1.23 2.32 2.32 0 0 1 1.23 3.035 2.314 2.314 0 0 1-4.259-1.805ZM0 83.113 12.276 90.2a14.05 14.05 0 0 0 1.9-7.08 14.14 14.14 0 0 0-4.16-10.026A14.118 14.118 0 0 0 .04 68.938H0v14.175Z" fill="#FF5836"></path><path d="m82.082 33.294-39.993 23.09-39.987-23.09-2.097 1.21v2.42l39.987 23.084v46.18l2.097 1.21 2.103-1.21v-46.18l39.982-23.085v-2.42l-2.092-1.21Z" fill="#6EC770"></path><path d="M54.554 39.284 33.82 27.31l-4.194 2.42 20.74 11.969 4.19-2.415Z" fill="#000"></path><path d="M38.773 16.957 2.102 38.133l-2.098-1.21v-2.42l34.523-19.93c.684.5 1.587.803 2.36 1.04.357.11.947.248 1.413.402a4.5 4.5 0 0 0 .471.947m43.31 21.176L56.066 23.12c.402-1.17.714-2.543-.233-3.545-.57-.605-1.25-.729-1.963-.823-.208-.62-.342-1.106-.873-1.909a6.431 6.431 0 0 0-.406-.56l31.588 18.23v2.42l-2.097 1.21v-.005Z" fill="#6EC770"></path><path fill-rule="evenodd" clip-rule="evenodd" d="M52.432 33.066c-.104.769-.015 1.11-.178 1.706-.139.5-.268.377-.312.972l.208 1.254c.778 1.463 1.824-1.438 2.102-3.49.1-.744.258-1.523-.347-.987-.645.575-.144.65-1.473.545ZM36.343.144c-.64.263-.357.13-.65.838-.525 1.294-.753-.104-1.685 1.106-.575.749-.927.872-.883 2.221.075 2.226-.282.357-.416 3.535 1.002 1.27 1.18 3.763 2.633 5.216.818.818 3.614 1.255 4.308 1.696.838 2.623.625.337 1.676 2.41-.02.659-.287 1.512-.253 1.928.09 1.046 1.066 1.537 1.448 4.775.164 1.388-.114 1.205-.357 2.092-.456 1.666.53 3.005.803 5.186.283 1.166.461 2.44.744 3.486.65 2.395 2.712 3.203 3.654 2.31.337-.322.818-.51 1.022-1.046.545-1.442-.268-.728 1.016-1.016-.01-.684-.015-1.373-.025-2.058 1.736-.986 1.978-.233 2.028-1.879.05-1.78-.778-3.624-.03-4.814.59-.937 1.795-1.423 2.167-1.81.297-.302.615-.868.858-1.552.942-2.652-.005-2.162-1.755-2.514-.694-1.601-.268-1.304-1.056-2.498-.685-1.032-.293-.11-.705-1.285-.669-2.018-1.338-4.04-2.003-6.063-.089-.605.566-1.661-.947-2.5-.644-.361-.272.085-1.1-.52-.883-.644-1.255-1.393-2.117-1.88-.387.79-.065 1.483-1.24-.044-.545-.709-.164-.401-.897-1.135-1.904-1.884-.189-.778-.838-2.27-.258-.596-1.73-1.21-2.31-1.414-1.166-.407-2.202-.887-3.095-.506l.005.005Z" fill="#FFC24A"></path></svg> 