<svg xmlns="http://www.w3.org/2000/svg" viewBox="0 0 640 480">
      <path fill="#fff" d="M0 0h640v480H0z"/>
      <path fill="#d21034" d="M320 133.3c-97.5 0-176.7 79.2-176.7 176.7s79.2 176.7 176.7 176.7 176.7-79.2 176.7-176.7-79.2-176.7-176.7-176.7zm0 320c-79.4 0-143.3-64-143.3-143.3S240.6 166.7 320 166.7 463.3 230.6 463.3 310 399.4 453.3 320 453.3z"/>
      <path fill="#d21034" d="M320 166.7c79.4 0 143.3 64 143.3 143.3S399.4 453.3 320 453.3V166.7z"/>
      <path fill="#fff" d="M320 200l22.9 70.5h74.1l-59.9 43.5 22.9 70.5-59.9-43.5-59.9 43.5 22.9-70.5-59.9-43.5h74.1z"/>
    </svg>
