<svg xmlns="http://www.w3.org/2000/svg" viewBox="0 0 640 480">
      <path fill="#c1272d" d="M0 0h640v480H0z"/>
      <path fill="#006233" d="M320 160l-98.3 284.5L320 320l98.3 124.5z"/>
      <path fill="#006233" d="M320 160l-98.3 284.5L320 320l98.3 124.5z"/>
      <path fill="#fff" d="M320 240l-49.2 142.3L320 320l49.2 62.3z"/>
      <path d="M320 240l-49.2 142.3L320 320l49.2 62.3z" fill="#c1272d"/>
      <path d="M320 240l-49.2 142.3L320 320l49.2 62.3z" fill="#c1272d"/>
      <path d="M320 240l-49.2 142.3L320 320l49.2 62.3z" fill="#c1272d"/>
      <path d="M320 240l-49.2 142.3L320 320l49.2 62.3z" fill="#c1272d"/>
    </svg>
