<svg xmlns="http://www.w3.org/2000/svg" width="920" height="303" fill="none" xmlns:v="https://vecta.io/nano"><style><![CDATA[.B{fill:#fff}.C{fill:#000}.D{fill-rule:evenodd}]]></style><mask id="A" maskUnits="userSpaceOnUse" x="659" y="9" width="138" height="137"><path d="M659.297 9.667h137.036v136H659.297v-136z" class="B"/></mask><g mask="url(#A)" class="D"><path d="M747.328 14.812c-1.12-1.407-.984-2.765-.156-3.989-11.088 2.375-20.901 5.885-23.484 10.844-1.745 3.339-1.995 7.255-4.484 9.459-6.563 5.803-6.797-1.036-15.068 10.271-16.672 22.787-5.573 21.864-13.901 35.995-1.828 3.099-1.412 4.407-1.579 5.464s-.833 5.219.333 7.912 7.511 6.807 8.672 9.011 1.495 5.954 2.99 8.479 9.75 8.276 11.245 9.579c5.208 4.546 24.479 3.084 29.573 1.573 6.495-1.932 17.011-8.125 22.084-.656 1.323 1.959 2.574 4.484 6.391 4.24s5.063-.568 7.052-.407c7.683.631-.855 11.167 2.855 22.36 1.697.12 3.489.088 5.213.115 14.521.203 11.609-17.979 7.584-25.271-4.109-7.442-38.333-14.193-47.812-14.193-46.027 0-24.735-8.021-35.64-21.823-7.703-9.749 10.62-26.803 10.099-32.697-1.678-19.14 39.896-21.312 28.036-36.26l-.003-.004zm-74 63.973c7.745 0 14.027 6.172 14.027 13.781s-6.282 13.781-14.027 13.781-14.031-6.172-14.031-13.781 6.282-13.781 14.031-13.781z" fill="#ffc24b"/></g><mask id="B" maskUnits="userSpaceOnUse" x="757" y="0" width="153" height="110"><path d="M757.667.817h152v108.85h-152V.817z" class="B"/></mask><g mask="url(#B)" class="D"><path d="M807.448 46.713c12.26 9.953 19.927-19.26 41.344 32.412 5.14 12.407 25.984 21.235 37.188 26.464 14.64 6.834 20.62 1.839 22.776-7.156-1.984.479-3.907.855-5.047.812-2.593-.104-3.104-1.479-3.786-2.235-11.427-12.579-31.355-40.125-37.698-55.312-1.328-3.177.662-2.443 1.579-4.073s.453-4.407-1.208-7.667c-2.875-5.651-23.011-2.74-27.916-3.172-5.959-.521-11.355-8.401-17.287-2.421-1.62 1.631-.188 3.667-.229 4.891-.093 2.787-26.172-8.459-26.177-8.469-11.156-12.245 7.302-4.849-5.25-13.964-.63-.453-10.833-.131-22.828 1.385-4.306 7.631-11.073 16.864 15.61 26.021 11.604 3.979 16.76 2.604 28.932 12.484h-.003zM869.953.901c7.746 0 14.027 6.172 14.027 13.781s-6.281 13.776-14.027 13.776-14.026-6.167-14.026-13.776S862.203.901 869.953.901z" fill="#fe5836"/></g><mask id="C" maskUnits="userSpaceOnUse" x="784" y="110" width="136" height="152"><path d="M784.855 110.355h134.76v150.702h-134.76V110.355z" class="B"/></mask><g mask="url(#C)" class="D"><path d="M795.151 179.109c-.12 1.547-2.344 4.626-3.916 6.255s-.834 2.735-.75 4.12-1.245 2.729-1.953 4.527-.307 7.354.563 10.494 7.573 11.031 8.448 12.334 1.036 3.14 1.036 5.052c0 1.921.973 5.12 1.718 8.666s3.552 6.5 5.834 9.276 2.469 4.626 3.093 5.688 1.989 5.178 1.989 6.927.271 2.505.855 4.14 4.401 4.036 6.183 4.317c8.328 1.334 26.802-6.588 32.817-13.562 1.036-1.203 5.969-6.25 8.917-11.183s1.183-3.932 1.183-5.891 1.245-1.588 2.697-2.281 5.126-3.323 6.12-5.855 0-4.969-.745-7.989 3.235-6.849 5.557-9.62 7.886-4.079 11.459-6.031 4.36-5.994 4.276-8.03-.833-4.568-.667-8.974-1.494-5.297-2.573-9.046-1.703-11.214-1.203-14.474 2.49-5.546 5.891-10.437 12.745-13.167 17.557-17.896c3.495-3.432 7.407-7.959 10.079-12.333-5.891-14.932-31.208-1.074-33.224 2.724-5.083 9.578-9.713 28.136-9.713 38.969 0 5.885-.88 9.797-1.027 13.541-.547 14.146-16.729 17.86-20.443 24.407-7.484 13.177-5.76 9.068-5.76 25.864 0 5.615-3.578 17.979-10.844 18.489-23.005 1.61-16.224-16.182-22.27-20.39-8.12-5.651-11.282-33.912-9.136-43.068 1.584-6.766-.995-27.427-9.792-27.916-7.298-.412-10.5 1.166-12.37 4.125 2.36 3.781 5.536 9.011 6.031 10.079.745 1.63 1.531 3.917 1.161 5.136s-.604 2.958.35 4.546 2.702 3.751 2.573 5.303l-.001-.003zm94.39 30.766c7.751 0 14.027 6.172 14.027 13.781s-6.276 13.781-14.027 13.781-14.026-6.172-14.026-13.781 6.281-13.781 14.026-13.781z" fill="#2c83f5"/></g><path d="M402.633 251.905v9.271h-23.625v10.396h20.917v9.271h-20.916v10.521h24.563v9.271h-34.167v-48.73h33.228zm20.466 0v39.459h22.896v9.271h-32.5v-48.73h9.604zm66.06 0v9.271h-23.626v10.396h20.918v9.271h-20.918v10.521h24.563v9.271h-34.167v-48.73h33.23zm47.401 44.688c-1.24 1.016-3.203 2.031-5.896 3.042s-5.625 1.521-8.792 1.521c-5.083 0-9.5-1.093-13.249-3.292-3.75-2.208-6.62-5.172-8.604-8.896-1.99-3.735-2.979-7.833-2.979-12.292 0-4.901.989-9.271 2.979-13.104 1.984-3.844 4.76-6.839 8.333-8.979 3.584-2.136 7.713-3.208 12.396-3.208 2.959 0 5.693.396 8.208 1.188s4.713 1.787 6.604 2.979l-3.771 9.063c-3.489-2.651-7.057-3.979-10.708-3.979-2.473 0-4.792.688-6.958 2.063s-3.891 3.245-5.167 5.604-1.916 4.973-1.916 7.833c0 3.14.588 5.891 1.771 8.251 1.193 2.364 2.896 4.208 5.104 5.541 2.208 1.323 4.792 1.979 7.75 1.979 2.386 0 4.527-.386 6.418-1.167 1.901-.776 3.401-1.693 4.5-2.749l3.977 8.602zm39.121-44.688v9.271h-11.854v39.459h-9.583v-39.459h-11.396v-9.271h32.833zm18.878 0v48.73h-9.604v-48.73h9.604zm9.593 24.438a24.24 24.24 0 0 1 3.333-12.375 25.21 25.21 0 0 1 9.084-9.167c3.818-2.276 7.959-3.416 12.418-3.416a23.72 23.72 0 0 1 12.396 3.418 25.79 25.79 0 0 1 9.145 9.166c2.276 3.834 3.417 7.959 3.417 12.375.032 4.382-1.15 8.687-3.416 12.437a25.61 25.61 0 0 1-9.145 9.042c-3.807 2.224-7.937 3.333-12.396 3.333-4.516 0-8.667-1.109-12.459-3.333-3.742-2.185-6.856-5.3-9.041-9.042-2.224-3.792-3.333-7.937-3.333-12.437l-.003-.001zm9.937 0c0 2.822.667 5.426 2 7.812 1.307 2.337 3.203 4.291 5.5 5.666 2.318 1.391 4.896 2.084 7.73 2.084 2.734 0 5.229-.693 7.478-2.082a14.86 14.86 0 0 0 5.292-5.646c1.276-2.36 1.918-4.969 1.918-7.833 0-2.916-.667-5.563-2-7.937-1.323-2.386-3.12-4.276-5.396-5.667-2.266-1.401-4.787-2.104-7.563-2.104s-5.307.703-7.583 2.104c-2.281 1.391-4.078 3.281-5.396 5.667-1.322 2.374-1.978 5.021-1.978 7.937l-.002-.001zm93.343-24.438v50.708h-.271l-34.082-30.77.188 28.792h-9.73v-50.646h.396l34.022 31.251-.188-29.333 9.665-.002zm38.593 11.792c-4.24-2.344-7.926-3.521-11.062-3.521-2.115 0-3.76.427-4.938 1.271-1.166.833-1.749 2.093-1.749 3.77 0 1.542.844 2.896 2.541 4.063 1.708 1.167 3.97 2.287 6.792 3.355 2.303.833 4.271 1.792 5.896 2.874 1.636 1.084 2.99 2.579 4.063 4.479 1.084 1.891 1.625 4.292 1.625 7.208 0 2.516-.656 4.844-1.958 6.979-1.292 2.14-3.198 3.844-5.708 5.104-2.516 1.25-5.516 1.874-9 1.874-2.916 0-5.812-.432-8.688-1.292a27.05 27.05 0 0 1-8-3.937l4.229-7.479c1.677 1.24 3.593 2.26 5.751 3.063 2.166.792 4.109 1.188 5.833 1.188 2.027 0 3.792-.427 5.292-1.292 1.511-.86 2.271-2.26 2.271-4.208 0-2.511-2.37-4.697-7.104-6.563-2.782-1.093-5.099-2.15-6.959-3.166-1.849-1.011-3.448-2.47-4.792-4.375s-2.021-4.281-2.021-7.145c0-4.194 1.38-7.568 4.145-10.126 2.76-2.568 6.437-3.964 11.021-4.188 3.626 0 6.646.412 9.063 1.23 2.504.858 4.891 2.027 7.104 3.478l-3.647 7.356z" fill="#6ec770"/><g class="C"><path d="M14.015 147.303c-2.407-1.568-4.521-4.36-6.355-8.375-1.823-4.027-2.729-7.864-2.729-11.521 0-2.511.339-4.47 1.021-5.875.677-1.416 1.855-2.568 3.521-3.459s4.172-1.645 7.521-2.27c3.235-.719 12.109-1.083 26.625-1.083l18.645.229c3.235.156 5.667.522 7.292 1.104 1.625.574 3.317 1.64 5.084 3.208 3.667 3.334 6.511 8.219 8.541 14.646 2.041 6.417 2.38 11.51 1.021 15.27-.74 1.782-1.448 2.85-2.125 3.208-.667.364-5.912.542-15.729.542H51.452l.479 1.896 1.104 6.25.625 4.563 9.541.312c6.375.307 10.344.667 11.917 1.084 3.443.948 6.421 4.079 8.937 9.396 2.177 4.5 3.271 8.74 3.271 12.708 0 3.656-.781 5.896-2.333 6.729-.948.531-8.937 1.418-23.979 2.667-2.083.099-3.312.229-3.688.396-.364.156-.489.541-.375 1.167.208.833.385 4.828.541 11.978s.333 11.364.541 12.626c.317 1.14.375 2.182.167 3.125-.416 1.776-2.328 2.817-5.729 3.125-3.391.318-7.016-.202-10.875-1.562-8.156-2.708-13.271-6.464-15.355-11.271-2.724-6.167-4.812-13.005-6.271-20.521-1.249-5.844-2.349-10.235-3.292-13.167-.74-2.083-1.136-3.697-1.188-4.855-.041-1.15.145-3.03.563-5.645v-13.167l-.167-12.062-1.873-1.396zm88.508 74.417c-3.766-2.609-6.85-7-9.25-13.167-2.708-6.582-4.016-13.156-3.916-19.729.109-6.583 1.573-15.151 4.396-25.708 3.651-13.469 7.672-23.651 12.063-30.541s9.76-11.588 16.125-14.104c2.303-.834 6.011-1.303 11.126-1.416 3.65-.094 6.208-.068 7.666.084 1.47.156 4.031.702 7.688 1.645 11.178 2.823 20.344 7.807 27.5 14.959s12.552 16.688 16.208 28.604c4.708 15.666 6.531 30.702 5.479 45.104-.724 8.25-1.636 13.604-2.729 16.062s-3.427 4.058-6.979 4.792c-3.24.719-6.416.771-9.541.146-7.74-1.25-13.64-3.698-17.708-7.355-1.474-1.36-2.495-2.615-3.063-3.771s-.855-2.713-.855-4.688c0-2.302-.208-3.562-.625-3.77-.531-.094-4.76-.303-12.688-.626l-11.916-.478-.312 4.562c-.416 4.584-1.203 7.85-2.355 9.792-1.156 1.932-3.14 3.24-5.958 3.918-2.823.666-6.266.562-10.334-.312-4.073-.886-7.412-2.219-10.021-4l-.001-.003zm28.5-52.812l-.459 2.979 3.125-.312c2.194-.303 5.172-.563 8.938-.771l8.312-.479 2.333-.312-.459-2.041c-1.156-4.167-3.062-9.38-5.729-15.645-2.656-6.276-4.303-9.416-4.937-9.416-.416 0-1.25.89-2.5 2.666a54.17 54.17 0 0 0-3.604 5.959c-1.042 1.989-2.063 4.703-3.063 8.145-.989 3.448-1.64 6.522-1.959 9.23l.002-.003zm79.444-49.021c5.317-1.984 11.948-2.979 19.896-2.979 19.218 0 34.104 7.677 44.645 23.021 15.251 21.932 11.697 39.063-10.645 51.396l-2.979 1.73 6.896 4.374c6.792 4.391 12.427 8.574 16.917 12.542 2.084 1.874 3.198 3.39 3.355 4.541.167 1.156-.583 2.667-2.249 4.541-2.724 2.918-6.782 5.219-12.167 6.896-5.375 1.667-9.521 1.922-12.437.771-1.875-.719-6.474-4.583-13.792-11.583l-5.959-5.645.312 6.584c.317 3.973.24 6.688-.229 8.145s-1.542 2.604-3.208 3.438c-1.364.636-3.479 1.005-6.355 1.104-2.864.109-5.391-.099-7.583-.626-7.114-1.568-11.661-4.338-13.645-8.312-.516-1.041-1.083-3.593-1.708-7.666-.531-3.86-.896-6.26-1.104-7.208-.208-.834-.787-8.402-1.729-22.708-1.558-23.708-1.87-36.818-.938-39.334.318-.942-.145-2.145-1.396-3.604-4.082-4.693-4.718-9.188-1.896-13.478.626-.834 1.172-1.506 1.646-2.022.469-.526 1.021-1.026 1.645-1.5s1.303-.885 2.041-1.249 1.626-.749 2.667-1.167l-.001-.002zm26.166 24.27c-3.973 0-5.958.266-5.958.792.093.099.302.251.625.459 1.36.849 2.771 5.864 4.229 15.041l1.418 8.626c0 .53.989.322 2.978-.626l1.875-.937c1.568-.735 3.213-1.672 4.937-2.812 1.719-1.151 3.255-2.355 4.604-3.604 1.36-1.26 2.407-2.464 3.146-3.604 2.817-4.177 4.125-7.005 3.917-8.479-.115-.718-1.265-1.469-3.459-2.249-2.182-.792-4.973-1.421-8.374-1.896-3.391-.469-6.703-.708-9.938-.708v-.003zM303.2 221.72c-3.765-2.609-6.849-7-9.249-13.167-2.708-6.582-4.016-13.156-3.916-19.729.109-6.583 1.573-15.151 4.396-25.708 3.65-13.469 7.672-23.651 12.062-30.541s9.76-11.588 16.126-14.104c2.302-.834 6.01-1.303 11.125-1.416 3.651-.094 6.208-.068 7.667.084 1.469.156 4.03.702 7.688 1.645 11.177 2.823 20.344 7.807 27.5 14.959s12.552 16.688 16.208 28.604c4.708 15.666 6.53 30.702 5.478 45.104-.724 8.25-1.636 13.604-2.729 16.062s-3.427 4.058-6.979 4.792c-3.24.719-6.416.771-9.541.146-7.74-1.25-13.64-3.698-17.708-7.355-1.473-1.36-2.495-2.615-3.063-3.771s-.854-2.713-.854-4.688c0-2.302-.208-3.562-.626-3.77-.53-.094-4.76-.303-12.688-.626l-11.916-.478-.312 4.562c-.416 4.584-1.202 7.85-2.354 9.792-1.156 1.932-3.14 3.24-5.959 3.918-2.823.666-6.265.562-10.333-.312-4.074-.886-7.412-2.219-10.022-4l-.001-.003zm28.5-52.812l-.459 2.979 3.126-.312c2.193-.303 5.172-.563 8.937-.771l8.312-.479 2.333-.312-.458-2.041c-1.156-4.167-3.063-9.38-5.73-15.645-2.656-6.276-4.302-9.416-4.937-9.416-.416 0-1.249.89-2.5 2.666-1.328 1.907-2.531 3.898-3.604 5.959-1.041 1.989-2.063 4.703-3.063 8.145-.989 3.448-1.64 6.522-1.958 9.23l.001-.003zm77.257-21.605c-2.406-1.568-4.521-4.36-6.354-8.375-1.834-4.027-2.75-7.864-2.75-11.521 0-3.552.812-6.115 2.438-7.688s4.833-2.875 9.625-3.916c3.251-.719 12.131-1.083 26.645-1.083l18.646.229c3.234.156 5.656.522 7.27 1.104 1.626.574 3.323 1.64 5.104 3.208 3.651 3.334 6.49 8.219 8.522 14.646 2.041 6.417 2.385 11.51 1.041 15.27-.74 1.782-1.448 2.85-2.125 3.208s-5.932.542-15.75.542h-14.874l.458 1.896 1.104 6.25.626 4.563 9.562.312c6.375.307 10.339.667 11.896 1.084 3.459.948 6.438 4.079 8.938 9.396 2.193 4.5 3.292 8.74 3.292 12.708 0 3.656-.787 5.896-2.355 6.729-.948.531-8.932 1.418-23.959 2.667-2.724.208-4.082.521-4.082.937v.626c.208.833.385 4.828.541 11.978.167 7.156.355 11.364.563 12.626.302 1.14.354 2.182.145 3.125-.416 1.776-2.328 2.817-5.729 3.125-3.391.318-7.016-.202-10.875-1.562-8.14-2.708-13.26-6.464-15.355-11.271-2.708-6.167-4.802-13.005-6.27-20.521-1.25-5.844-2.35-10.235-3.292-13.167-.724-2.083-1.115-3.697-1.167-4.855s.125-3.03.541-5.645v-13.167l-.145-12.062-1.875-1.396zm93.507 72.062c-3.448-1.984-5.875-4.254-7.292-6.812-1.407-2.552-2.916-7.588-4.541-15.104-1.615-7.526-2.787-14.844-3.522-21.958-.53-5.844-.896-14.068-1.104-24.667s-.156-17.197.167-19.812c.417-2.511.937-4.292 1.563-5.333s1.822-1.979 3.604-2.812c2.51-1.26 6.062-1.631 10.645-1.104 4.593.53 8.615 1.781 12.063 3.75 3.25 1.782 5.734 3.823 7.458 6.126 1.719 2.292 3.104 5.369 4.146 9.229 1.25 4.5 2.109 9.208 2.584 14.125.469 4.907.812 13.099 1.021 24.584l.771 23.188c.218 1.156.645 4.126 1.27 8.918.511 3.666.771 5.89.771 6.666s-.312 1.594-.937 2.438c-1.156 1.557-3.303 2.598-6.438 3.125-3.125.531-6.573.427-10.333-.312-4.489-.833-8.453-2.24-11.896-4.229v-.006zm128.924-60.937c1.568 12.323 2.355 26.891 2.355 43.708 0 9.615-.416 15.093-1.25 16.437-.625.74-1.62 1.37-2.978 1.896-1.25.418-4.23.807-8.938 1.167-4.697.364-8.926.495-12.688.396-5.948-.109-10.489-1.364-13.625-3.771-1.249-.926-4.099-4.76-8.541-11.5a399.34 399.34 0 0 1-12.771-20.77l-1.708-2.812.312 5.645 1.084 18c.317 4.391.421 7.708.312 9.959-.099 2.25-.333 3.688-.708 4.312-.364.625-1.167 1.25-2.416 1.874-1.041.516-2.615.932-4.708 1.251-2.083.323-3.703.375-4.855.167-.098 0-.385-.047-.854-.146-.474-.109-1.022-.218-1.646-.333l-1.729-.312a22.6 22.6 0 0 1-8.604-3.667c-2.615-1.833-4.229-3.797-4.855-5.896-.432-1.36-1.01-5.068-1.729-11.125l-2.355-17.688c-1.249-8.984-1.593-20.317-1.021-34 .584-13.677 1.708-22.193 3.375-25.541 2.5-4.902 7.51-5.896 15.041-2.979l6.729 2.5c3.027 1.057 5.219 2.161 6.584 3.312 1.36 1.14 3.708 3.803 7.042 7.979 4.593 5.849 10.13 14.26 16.604 25.229l5.812 9.541 1.084 1.73-.312-4.083c-.724-8.249-1.063-17.276-1.022-27.083.052-9.817.47-15.588 1.251-17.312.792-1.734 2.521-2.781 5.188-3.145s5.823.084 9.479 1.333c6.885 2.307 11.062 5.959 12.521 10.959 1.568 5.656 3.084 13.912 4.541 24.771l-.001-.003zm19.747 63.292c-3.766-2.609-6.85-7-9.25-13.167-2.708-6.582-4.016-13.156-3.916-19.729.11-6.583 1.574-15.151 4.396-25.708 3.651-13.469 7.672-23.651 12.063-30.541s9.76-11.588 16.125-14.104c2.303-.834 6.011-1.303 11.126-1.416 3.65-.094 6.208-.068 7.666.084 1.47.156 4.031.702 7.688 1.645 11.178 2.823 20.344 7.807 27.5 14.959s12.552 16.688 16.208 28.604c4.708 15.666 6.531 30.702 5.479 45.104-.724 8.25-1.636 13.604-2.729 16.062s-3.427 4.058-6.979 4.792c-3.24.719-6.416.771-9.541.146-7.74-1.25-13.64-3.698-17.708-7.355-1.474-1.36-2.495-2.615-3.063-3.771s-.855-2.713-.855-4.688c0-2.302-.208-3.562-.625-3.77-.531-.094-4.76-.303-12.688-.626l-11.916-.478-.312 4.562c-.416 4.584-1.203 7.85-2.355 9.792-1.156 1.932-3.14 3.24-5.958 3.918-2.823.666-6.266.562-10.334-.312-4.073-.886-7.412-2.219-10.021-4l-.001-.003zm28.5-52.812l-.459 2.979 3.125-.312c2.194-.303 5.172-.563 8.938-.771l8.312-.479 2.333-.312-.459-2.041c-1.156-4.167-3.062-9.38-5.729-15.645-2.656-6.276-4.303-9.416-4.937-9.416-.416 0-1.25.89-2.5 2.666a54.17 54.17 0 0 0-3.604 5.959c-1.042 1.989-2.063 4.703-3.063 8.145-.989 3.448-1.64 6.522-1.959 9.23l.002-.003z" fill-opacity=".302"/><path d="M11.875 149.853c-2.407-1.568-4.521-4.36-6.355-8.374-1.823-4.027-2.729-7.864-2.729-11.522 0-2.51.339-4.469 1.021-5.874.677-1.416 1.855-2.568 3.521-3.459s4.172-1.645 7.521-2.271c3.235-.718 12.109-1.082 26.625-1.082l18.645.229c3.235.156 5.667.521 7.292 1.104 1.625.573 3.317 1.64 5.084 3.208 3.667 3.333 6.511 8.219 8.541 14.645 2.041 6.418 2.38 11.511 1.021 15.271-.74 1.781-1.448 2.849-2.125 3.208-.667.364-5.912.541-15.729.541H49.312l.479 1.896 1.104 6.251.625 4.563 9.541.312c6.375.306 10.344.666 11.917 1.084 3.443.948 6.421 4.078 8.937 9.396 2.177 4.5 3.271 8.74 3.271 12.708 0 3.656-.781 5.896-2.333 6.729-.948.531-8.937 1.417-23.979 2.667-2.083.098-3.312.229-3.688.396-.364.156-.489.541-.375 1.166.208.834.385 4.828.541 11.979s.333 11.364.541 12.625c.317 1.14.375 2.183.167 3.126-.416 1.776-2.328 2.817-5.729 3.125-3.391.317-7.016-.203-10.875-1.563-8.156-2.708-13.271-6.464-15.355-11.27-2.724-6.167-4.812-13.006-6.271-20.522-1.249-5.844-2.349-10.234-3.292-13.166-.74-2.083-1.136-3.698-1.188-4.855-.041-1.151.145-3.031.563-5.645v-13.167l-.167-12.063-1.873-1.396zm88.508 74.418c-3.766-2.61-6.85-7-9.25-13.167-2.708-6.583-4.016-13.156-3.916-19.729.109-6.583 1.573-15.151 4.396-25.708 3.651-13.47 7.672-23.651 12.063-30.542s9.76-11.588 16.125-14.104c2.303-.833 6.011-1.302 11.126-1.416 3.65-.093 6.208-.068 7.666.084 1.47.156 4.031.703 7.688 1.646 11.178 2.822 20.344 7.806 27.5 14.958s12.552 16.688 16.208 28.604c4.708 15.667 6.531 30.703 5.479 45.104-.724 8.251-1.636 13.604-2.729 16.063s-3.427 4.057-6.979 4.792c-3.24.719-6.416.771-9.541.145-7.74-1.249-13.64-3.697-17.708-7.354-1.474-1.36-2.495-2.615-3.063-3.771s-.855-2.713-.855-4.688c0-2.303-.208-3.563-.625-3.771-.531-.093-4.76-.302-12.688-.625l-11.916-.479-.312 4.563c-.416 4.584-1.203 7.849-2.355 9.792-1.156 1.932-3.14 3.24-5.958 3.917-2.823.667-6.266.563-10.334-.312-4.073-.885-7.412-2.218-10.021-4l-.001-.002zm28.5-52.812l-.459 2.978 3.125-.312c2.194-.302 5.172-.562 8.938-.77l8.312-.479 2.333-.312-.459-2.041c-1.156-4.167-3.062-9.38-5.729-15.646-2.656-6.276-4.303-9.416-4.937-9.416-.416 0-1.25.891-2.5 2.667-1.328 1.907-2.532 3.897-3.604 5.959-1.042 1.989-2.063 4.702-3.063 8.145-.989 3.448-1.64 6.521-1.959 9.229l.002-.002zm79.444-49.022c5.317-1.984 11.948-2.978 19.896-2.978 19.218 0 34.104 7.677 44.645 23.021 15.251 21.932 11.697 39.063-10.645 51.396l-2.979 1.729 6.896 4.375c6.792 4.391 12.427 8.573 16.917 12.541 2.084 1.875 3.198 3.391 3.355 4.542.167 1.156-.583 2.666-2.249 4.541-2.724 2.917-6.782 5.219-12.167 6.896-5.375 1.667-9.521 1.921-12.437.771-1.875-.719-6.474-4.583-13.792-11.583l-5.959-5.645.312 6.584c.317 3.973.24 6.688-.229 8.145s-1.542 2.604-3.208 3.437c-1.364.636-3.479 1.006-6.355 1.104-2.864.11-5.391-.098-7.583-.625-7.114-1.568-11.661-4.339-13.645-8.312-.516-1.041-1.083-3.593-1.708-7.667-.531-3.86-.896-6.26-1.104-7.208-.208-.833-.787-8.401-1.729-22.708-1.558-23.708-1.87-36.817-.938-39.333.318-.943-.145-2.145-1.396-3.604-4.082-4.693-4.718-9.188-1.896-13.479.626-.833 1.172-1.505 1.646-2.021.469-.527 1.021-1.027 1.645-1.5s1.303-.885 2.041-1.249a38.53 38.53 0 0 1 2.667-1.167l-.001-.003zm26.166 24.271c-3.973 0-5.958.265-5.958.792.093.099.302.251.625.459 1.36.849 2.771 5.864 4.229 15.041l1.418 8.625c0 .531.989.323 2.978-.625l1.875-.937c1.568-.735 3.213-1.672 4.937-2.812 1.719-1.151 3.255-2.355 4.604-3.604 1.36-1.26 2.407-2.464 3.146-3.604 2.817-4.178 4.125-7.006 3.917-8.479-.115-.719-1.265-1.469-3.459-2.249-2.182-.792-4.973-1.422-8.374-1.896a72.36 72.36 0 0 0-9.938-.708v-.003zm66.567 77.563c-3.765-2.61-6.849-7-9.249-13.167-2.708-6.583-4.016-13.156-3.916-19.729.109-6.583 1.573-15.151 4.396-25.708 3.65-13.47 7.672-23.651 12.062-30.542s9.76-11.588 16.126-14.104c2.302-.833 6.01-1.302 11.125-1.416 3.651-.093 6.208-.068 7.667.084 1.469.156 4.03.703 7.688 1.646 11.177 2.822 20.344 7.806 27.5 14.958s12.552 16.688 16.208 28.604c4.708 15.667 6.53 30.703 5.478 45.104-.724 8.251-1.636 13.604-2.729 16.063s-3.427 4.057-6.979 4.792c-3.24.719-6.416.771-9.541.145-7.74-1.249-13.64-3.697-17.708-7.354-1.473-1.36-2.495-2.615-3.063-3.771s-.854-2.713-.854-4.688c0-2.303-.208-3.563-.626-3.771-.53-.093-4.76-.302-12.688-.625l-11.916-.479-.312 4.563c-.416 4.584-1.202 7.849-2.354 9.792-1.156 1.932-3.14 3.24-5.959 3.917-2.823.667-6.265.563-10.333-.312-4.074-.885-7.412-2.218-10.022-4l-.001-.002zm28.5-52.812l-.459 2.978 3.126-.312c2.193-.302 5.172-.562 8.937-.77l8.312-.479 2.333-.312-.458-2.041c-1.156-4.167-3.063-9.38-5.73-15.646-2.656-6.276-4.302-9.416-4.937-9.416-.416 0-1.249.891-2.5 2.667a54.23 54.23 0 0 0-3.604 5.959c-1.041 1.989-2.063 4.702-3.063 8.145-.989 3.448-1.64 6.521-1.958 9.229l.001-.002zm77.257-21.606c-2.406-1.568-4.521-4.36-6.354-8.374-1.834-4.027-2.75-7.864-2.75-11.522 0-3.552.812-6.114 2.438-7.688s4.833-2.874 9.625-3.916c3.251-.718 12.131-1.082 26.645-1.082l18.646.229c3.234.156 5.656.521 7.27 1.104 1.626.573 3.323 1.64 5.104 3.208 3.651 3.333 6.49 8.219 8.522 14.645 2.041 6.418 2.385 11.511 1.041 15.271-.74 1.781-1.448 2.849-2.125 3.208s-5.932.541-15.75.541h-14.874l.458 1.896 1.104 6.251.626 4.563 9.562.312c6.375.306 10.339.666 11.896 1.084 3.459.948 6.438 4.078 8.938 9.396 2.193 4.5 3.292 8.74 3.292 12.708 0 3.656-.787 5.896-2.355 6.729-.948.531-8.932 1.417-23.959 2.667-2.724.208-4.082.521-4.082.937v.625c.208.834.385 4.828.541 11.979.167 7.156.355 11.364.563 12.625.302 1.14.354 2.183.145 3.126-.416 1.776-2.328 2.817-5.729 3.125-3.391.317-7.016-.203-10.875-1.563-8.14-2.708-13.26-6.464-15.355-11.27-2.708-6.167-4.802-13.006-6.27-20.522-1.25-5.844-2.35-10.234-3.292-13.166-.724-2.083-1.115-3.698-1.167-4.855s.125-3.031.541-5.645v-13.167l-.145-12.063-1.875-1.396zm93.507 72.063c-3.448-1.984-5.875-4.255-7.292-6.812-1.407-2.552-2.916-7.588-4.541-15.104-1.615-7.527-2.787-14.844-3.522-21.959-.53-5.844-.896-14.068-1.104-24.666s-.156-17.198.167-19.812c.417-2.511.937-4.292 1.563-5.334s1.822-1.978 3.604-2.812c2.51-1.26 6.062-1.63 10.645-1.104 4.593.531 8.615 1.782 12.063 3.751 3.25 1.781 5.734 3.823 7.458 6.125 1.719 2.292 3.104 5.37 4.146 9.23 1.25 4.5 2.109 9.208 2.584 14.125.469 4.907.812 13.099 1.021 24.584l.771 23.188c.218 1.156.645 4.125 1.27 8.917.511 3.667.771 5.891.771 6.667s-.312 1.593-.937 2.437c-1.156 1.558-3.303 2.599-6.438 3.126-3.125.53-6.573.426-10.333-.312-4.489-.834-8.453-2.24-11.896-4.23v-.005zm128.924-60.937c1.568 12.322 2.355 26.89 2.355 43.708 0 9.614-.416 15.093-1.25 16.437-.625.74-1.62 1.369-2.978 1.896-1.25.417-4.23.807-8.938 1.167-4.697.364-8.926.494-12.688.396-5.948-.11-10.489-1.364-13.625-3.771-1.249-.927-4.099-4.76-8.541-11.5a399.37 399.37 0 0 1-12.771-20.771l-1.708-2.812.312 5.646 1.084 18c.317 4.39.421 7.708.312 9.958-.099 2.251-.333 3.688-.708 4.312-.364.626-1.167 1.251-2.416 1.875-1.041.516-2.615.932-4.708 1.251-2.083.322-3.703.374-4.855.166-.098 0-.385-.046-.854-.145a37.68 37.68 0 0 0-1.646-.333l-1.729-.312a22.6 22.6 0 0 1-8.604-3.667c-2.615-1.833-4.229-3.797-4.855-5.896-.432-1.36-1.01-5.068-1.729-11.125l-2.355-17.688c-1.249-8.984-1.593-20.318-1.021-34 .584-13.678 1.708-22.194 3.375-25.542 2.5-4.901 7.51-5.896 15.041-2.978l6.729 2.5c3.027 1.057 5.219 2.161 6.584 3.312 1.36 1.14 3.708 3.802 7.042 7.978 4.593 5.85 10.13 14.26 16.604 25.23l5.812 9.541 1.084 1.729-.312-4.082c-.724-8.25-1.063-17.276-1.022-27.083.052-9.817.47-15.588 1.251-17.312.792-1.735 2.521-2.781 5.188-3.145s5.823.084 9.479 1.333c6.885 2.307 11.062 5.959 12.521 10.959 1.568 5.656 3.084 13.912 4.541 24.77l-.001-.002zm19.745 63.292c-3.765-2.61-6.849-7-9.249-13.167-2.708-6.583-4.016-13.156-3.916-19.729.109-6.583 1.573-15.151 4.396-25.708 3.651-13.47 7.672-23.651 12.063-30.542s9.76-11.588 16.125-14.104c2.303-.833 6.011-1.302 11.125-1.416 3.651-.093 6.208-.068 7.667.084 1.469.156 4.031.703 7.688 1.646 11.177 2.822 20.344 7.806 27.5 14.958s12.552 16.688 16.208 28.604c4.708 15.667 6.531 30.703 5.479 45.104-.724 8.251-1.636 13.604-2.73 16.063s-3.426 4.057-6.978 4.792c-3.24.719-6.416.771-9.542.145-7.74-1.249-13.64-3.697-17.708-7.354-1.473-1.36-2.494-2.615-3.062-3.771s-.855-2.713-.855-4.688c0-2.303-.208-3.563-.625-3.771-.531-.093-4.76-.302-12.688-.625l-11.916-.479-.312 4.563c-.416 4.584-1.203 7.849-2.355 9.792-1.156 1.932-3.14 3.24-5.959 3.917-2.822.667-6.265.563-10.333-.312-4.073-.885-7.412-2.218-10.021-4l-.002-.002zm28.5-52.812l-.458 2.978 3.125-.312c2.193-.302 5.172-.562 8.937-.77l8.312-.479 2.334-.312-.459-2.041c-1.156-4.167-3.063-9.38-5.729-15.646-2.656-6.276-4.303-9.416-4.938-9.416-.416 0-1.249.891-2.5 2.667-1.327 1.907-2.531 3.897-3.604 5.959-1.041 1.989-2.062 4.702-3.062 8.145-.99 3.448-1.64 6.521-1.959 9.229l.001-.002z" fill-opacity=".502"/><path d="M9.735 152.404c-2.407-1.568-4.521-4.36-6.355-8.375-1.823-4.026-2.729-7.864-2.729-11.521 0-2.511.339-4.469 1.021-5.875.677-1.416 1.855-2.568 3.521-3.458s4.172-1.646 7.521-2.271c3.235-.719 12.109-1.083 26.625-1.083l18.645.23c3.235.156 5.667.521 7.292 1.104 1.625.573 3.317 1.64 5.084 3.208 3.667 3.333 6.511 8.218 8.541 14.645 2.041 6.417 2.38 11.511 1.021 15.271-.74 1.781-1.448 2.849-2.125 3.208-.667.364-5.912.541-15.729.541H47.172l.479 1.896 1.104 6.251.625 4.562 9.541.312c6.375.307 10.344.667 11.917 1.084 3.443.948 6.421 4.079 8.937 9.396 2.177 4.5 3.271 8.74 3.271 12.708 0 3.656-.781 5.896-2.333 6.73-.948.53-8.937 1.417-23.979 2.666-2.083.099-3.312.23-3.688.396-.364.156-.489.542-.375 1.167.208.833.385 4.828.541 11.979s.333 11.364.541 12.625c.317 1.14.375 2.183.167 3.125-.416 1.776-2.328 2.818-5.729 3.126-3.391.317-7.016-.203-10.875-1.563-8.156-2.708-13.271-6.464-15.355-11.271-2.724-6.166-4.812-13.005-6.271-20.521-1.249-5.844-2.349-10.235-3.292-13.167-.74-2.082-1.136-3.697-1.188-4.854-.041-1.151.145-3.031.563-5.646v-13.166l-.167-12.063-1.873-1.396zm88.508 74.417c-3.765-2.609-6.849-7-9.249-13.166-2.708-6.583-4.016-13.156-3.916-19.73.109-6.582 1.573-15.15 4.396-25.708 3.651-13.469 7.672-23.65 12.063-30.541s9.76-11.588 16.125-14.104c2.303-.833 6.011-1.303 11.126-1.416 3.65-.093 6.208-.068 7.666.084 1.47.156 4.031.703 7.688 1.645 11.178 2.823 20.344 7.807 27.5 14.959s12.552 16.688 16.208 28.604c4.708 15.667 6.531 30.703 5.479 45.104-.724 8.251-1.636 13.604-2.729 16.063s-3.427 4.057-6.979 4.792c-3.24.718-6.416.77-9.541.145-7.74-1.249-13.64-3.697-17.708-7.355-1.474-1.36-2.495-2.614-3.063-3.77s-.855-2.714-.855-4.688c0-2.303-.208-3.563-.625-3.771-.531-.093-4.76-.303-12.688-.625l-11.916-.479-.312 4.563c-.416 4.584-1.203 7.849-2.355 9.792-1.156 1.932-3.14 3.24-5.958 3.917-2.823.667-6.266.563-10.334-.312-4.073-.885-7.412-2.219-10.021-4l-.001-.003zm28.5-52.812l-.459 2.979 3.125-.312c2.194-.303 5.172-.563 8.938-.771l8.312-.478 2.333-.312-.459-2.042c-1.156-4.166-3.062-9.38-5.729-15.645-2.656-6.276-4.303-9.416-4.937-9.416-.416 0-1.25.891-2.5 2.667-1.328 1.907-2.532 3.897-3.604 5.958-1.042 1.99-2.063 4.703-3.063 8.146-.989 3.448-1.64 6.521-1.959 9.229l.002-.003zm79.444-49.021c5.317-1.984 11.948-2.979 19.896-2.979 19.218 0 34.104 7.678 44.645 23.022 15.251 21.932 11.697 39.062-10.645 51.396l-2.979 1.729 6.896 4.375c6.792 4.39 12.427 8.573 16.917 12.541 2.084 1.875 3.198 3.391 3.355 4.541.167 1.156-.583 2.667-2.249 4.542-2.724 2.917-6.782 5.218-12.167 6.896-5.375 1.666-9.521 1.921-12.437.77-1.875-.718-6.474-4.582-13.792-11.582l-5.96-5.647.312 6.584c.317 3.973.24 6.688-.23 8.145s-1.541 2.604-3.208 3.438c-1.364.636-3.478 1.005-6.354 1.104-2.864.109-5.391-.099-7.583-.626-7.115-1.568-11.661-4.338-13.645-8.312-.516-1.041-1.083-3.593-1.708-7.666-.531-3.86-.896-6.26-1.104-7.208-.208-.834-.787-8.402-1.73-22.708-1.557-23.708-1.869-36.818-.937-39.334.317-.942-.145-2.145-1.396-3.604-4.083-4.693-4.719-9.188-1.896-13.478.625-.834 1.172-1.506 1.645-2.022.47-.526 1.022-1.026 1.646-1.5a12.5 12.5 0 0 1 2.041-1.249c.739-.364 1.625-.749 2.667-1.167v-.001zm26.166 24.271c-3.973 0-5.958.265-5.958.792.093.098.302.25.625.458 1.36.85 2.771 5.864 4.229 15.042l1.418 8.625c0 .531.989.323 2.978-.625l1.875-.938c1.568-.734 3.213-1.672 4.937-2.812 1.719-1.15 3.255-2.354 4.604-3.604 1.36-1.26 2.407-2.464 3.146-3.604 2.817-4.177 4.125-7.005 3.917-8.478-.115-.719-1.265-1.47-3.459-2.25-2.182-.792-4.973-1.421-8.374-1.896-3.391-.469-6.703-.708-9.938-.708v-.002zm66.567 77.562c-3.765-2.609-6.849-7-9.249-13.166-2.708-6.583-4.016-13.156-3.916-19.73.109-6.582 1.573-15.15 4.396-25.708 3.65-13.469 7.672-23.65 12.062-30.541s9.76-11.588 16.126-14.104c2.302-.833 6.01-1.303 11.125-1.416 3.651-.093 6.208-.068 7.667.084 1.469.156 4.03.703 7.688 1.645 11.177 2.823 20.344 7.807 27.5 14.959s12.552 16.688 16.208 28.604c4.708 15.667 6.53 30.703 5.478 45.104-.724 8.251-1.636 13.604-2.729 16.063s-3.427 4.057-6.979 4.792c-3.24.718-6.416.77-9.541.145-7.74-1.249-13.64-3.697-17.708-7.355-1.473-1.36-2.495-2.614-3.063-3.77s-.854-2.714-.854-4.688c0-2.303-.208-3.563-.626-3.771-.53-.093-4.76-.303-12.688-.625l-11.916-.479-.312 4.563c-.416 4.584-1.202 7.849-2.354 9.792-1.156 1.932-3.14 3.24-5.959 3.917-2.823.667-6.265.563-10.333-.312-4.074-.885-7.412-2.219-10.022-4l-.001-.003zm28.5-52.812l-.459 2.979 3.126-.312c2.193-.303 5.172-.563 8.937-.771l8.312-.478 2.333-.312-.458-2.042c-1.156-4.166-3.063-9.38-5.73-15.645-2.656-6.276-4.302-9.416-4.937-9.416-.416 0-1.249.891-2.5 2.667a54.31 54.31 0 0 0-3.604 5.958c-1.041 1.99-2.063 4.703-3.063 8.146-.989 3.448-1.64 6.521-1.958 9.229l.001-.003zm77.257-21.605c-2.406-1.568-4.521-4.36-6.354-8.375-1.834-4.026-2.75-7.864-2.75-11.521 0-3.552.812-6.115 2.438-7.688s4.833-2.875 9.625-3.916c3.251-.719 12.131-1.083 26.645-1.083l18.646.23c3.234.156 5.656.521 7.27 1.104 1.626.573 3.323 1.64 5.104 3.208 3.651 3.333 6.49 8.218 8.522 14.645 2.041 6.417 2.385 11.511 1.041 15.271-.74 1.781-1.448 2.849-2.125 3.208s-5.932.541-15.75.541h-14.874l.458 1.896 1.104 6.251.626 4.562 9.562.312c6.375.307 10.339.667 11.896 1.084 3.459.948 6.438 4.079 8.938 9.396 2.193 4.5 3.292 8.74 3.292 12.708 0 3.656-.787 5.896-2.355 6.73-.948.53-8.932 1.417-23.959 2.666-2.724.208-4.082.522-4.082.938v.625c.208.833.385 4.828.541 11.979.167 7.156.355 11.364.563 12.625.302 1.14.354 2.183.145 3.125-.416 1.776-2.328 2.818-5.729 3.126-3.391.317-7.016-.203-10.875-1.563-8.14-2.708-13.26-6.464-15.355-11.271-2.708-6.166-4.802-13.005-6.27-20.521-1.25-5.844-2.35-10.235-3.292-13.167-.724-2.082-1.115-3.697-1.167-4.854s.125-3.031.541-5.646v-13.166l-.145-12.063-1.875-1.396zm93.507 72.063c-3.448-1.984-5.875-4.255-7.292-6.812-1.407-2.552-2.916-7.588-4.541-15.104-1.615-7.527-2.787-14.844-3.522-21.959-.53-5.844-.896-14.068-1.104-24.667s-.156-17.197.167-19.812c.417-2.51.937-4.292 1.563-5.333s1.822-1.979 3.604-2.812c2.51-1.26 6.062-1.631 10.645-1.104 4.593.531 8.615 1.781 12.063 3.751 3.25 1.781 5.734 3.822 7.458 6.125 1.719 2.292 3.104 5.369 4.146 9.229 1.25 4.5 2.109 9.208 2.584 14.126.469 4.906.812 13.098 1.021 24.584l.771 23.188c.218 1.156.645 4.125 1.27 8.917.511 3.667.771 5.891.771 6.667s-.312 1.593-.937 2.437c-1.156 1.557-3.303 2.599-6.438 3.125-3.125.531-6.573.427-10.333-.312-4.489-.833-8.453-2.24-11.896-4.229v-.005zm128.924-60.938c1.568 12.323 2.355 26.891 2.355 43.708 0 9.615-.416 15.094-1.25 16.438-.625.74-1.62 1.369-2.978 1.896-1.25.417-4.23.806-8.938 1.166-4.697.364-8.926.495-12.688.396-5.948-.109-10.489-1.364-13.625-3.77-1.249-.927-4.099-4.76-8.541-11.5a399.37 399.37 0 0 1-12.771-20.771l-1.708-2.812.312 5.645 1.084 18c.317 4.391.421 7.708.312 9.959-.099 2.251-.333 3.688-.708 4.312-.364.625-1.167 1.251-2.416 1.875-1.041.516-2.615.932-4.708 1.25-2.083.323-3.703.375-4.855.167-.098 0-.385-.047-.854-.145-.474-.11-1.022-.219-1.646-.334l-1.729-.312c-3.092-.609-6.023-1.858-8.604-3.666-2.615-1.834-4.229-3.798-4.855-5.896-.432-1.36-1.01-5.068-1.729-11.126l-2.355-17.688c-1.249-8.984-1.593-20.317-1.021-34 .584-13.677 1.708-22.193 3.375-25.541 2.5-4.901 7.51-5.896 15.041-2.979l6.729 2.5c3.027 1.058 5.219 2.162 6.584 3.312 1.36 1.14 3.708 3.803 7.042 7.979 4.593 5.849 10.13 14.26 16.604 25.229l5.812 9.542 1.084 1.729-.312-4.083c-.724-8.249-1.063-17.276-1.022-27.082.052-9.818.47-15.588 1.251-17.312.792-1.735 2.521-2.782 5.188-3.146s5.823.084 9.479 1.334c6.885 2.306 11.062 5.958 12.521 10.958 1.568 5.656 3.084 13.912 4.541 24.771l-.001-.003zm19.745 63.292c-3.765-2.609-6.849-7-9.249-13.166-2.708-6.583-4.016-13.156-3.916-19.73.109-6.582 1.573-15.15 4.396-25.708 3.651-13.469 7.672-23.65 12.063-30.541s9.76-11.588 16.125-14.104c2.303-.833 6.011-1.303 11.125-1.416 3.651-.093 6.208-.068 7.667.084 1.469.156 4.031.703 7.688 1.645 11.177 2.823 20.344 7.807 27.5 14.959s12.552 16.688 16.208 28.604c4.708 15.667 6.531 30.703 5.479 45.104-.724 8.251-1.636 13.604-2.73 16.063s-3.426 4.057-6.978 4.792c-3.24.718-6.416.77-9.542.145-7.74-1.249-13.64-3.697-17.708-7.355-1.473-1.36-2.494-2.614-3.062-3.77s-.855-2.714-.855-4.688c0-2.303-.208-3.563-.625-3.771-.531-.093-4.76-.303-12.688-.625l-11.916-.479-.312 4.563c-.416 4.584-1.203 7.849-2.355 9.792-1.156 1.932-3.14 3.24-5.959 3.917-2.822.667-6.265.563-10.333-.312-4.073-.885-7.412-2.219-10.021-4l-.002-.003zm28.5-52.812l-.458 2.979 3.125-.312c2.193-.303 5.172-.563 8.937-.771l8.312-.478 2.334-.312-.459-2.042c-1.156-4.166-3.063-9.38-5.729-15.645-2.656-6.276-4.303-9.416-4.938-9.416-.416 0-1.249.891-2.5 2.667-1.327 1.907-2.531 3.897-3.604 5.958-1.041 1.99-2.062 4.703-3.062 8.146-.99 3.448-1.64 6.521-1.959 9.229l.001-.003z"/></g><mask id="D" maskUnits="userSpaceOnUse" x="479" y="53" width="48" height="48"><path d="M479.703 53.667h47.276v47.276h-47.276V53.667z" class="B"/></mask><g mask="url(#D)"><mask id="E" maskUnits="userSpaceOnUse" x="479" y="53" width="48" height="48"><path d="M503.339 100.656c-22.927-15.708-24.203-25.901-21.656-31.844s10.62-12.74 16.562-14.443c6.37-1.271 16.563 1.703 21.235 5.948 4.672 4.672 8.068 14.437 6.792 20.807-.849 6.369-7.219 14.864-13.161 17.412s-16.136 2.12-21.656-1.276-10.62-12.74-11.47-18.683c-.421-5.099.85-10.62 4.251-14.437 3.817-4.672 13.161-9.771 19.104-10.193 5.521-.427 11.891 2.125 15.713 5.943 4.246 4.251 8.068 14.016 7.646 19.959 0 5.521-3.823 11.469-7.646 14.864s-15.286 5.943-15.286 5.943" class="B"/></mask><g mask="url(#E)"><path d="M463 36.964h80.683v80.995H463V36.964z" fill="#2c83f5"/></g></g><mask id="F" maskUnits="userSpaceOnUse" x="336" y="142" width="35" height="42"><path d="M336.333 142.407h33.979v40.702h-33.979v-40.702z" class="B"/></mask><g mask="url(#F)"><mask id="G" maskUnits="userSpaceOnUse" x="336" y="142" width="35" height="42"><path d="M369.459 161.401c-4.156 13.979-7.178 16.812-10.011 17.38-2.645.568-7.177-1.136-9.255-2.645-1.322-.943-2.078-2.453-2.645-4.156-.568-2.079-1.131-5.667.188-7.364 1.891-2.265 11.145-4.531 12.844-2.833s-1.885 10.953-4.151 14.541c-1.702 3.027-4.536 5.86-7.369 6.421-2.64.755-7.177-.562-9.255-2.453-2.265-1.891-3.396-6.421-3.208-9.255 0-2.078 1.323-4.344 3.022-5.854 2.078-1.703 6.421-3.214 9.254-2.646s6.422 3.588 7.558 6.235.374 7.364-.948 9.631c-1.131 1.89-3.208 3.401-5.287 4.156-1.891.568-4.536.754-6.609 0-2.459-1.131-5.86-4.531-6.803-6.99-.755-2.078-.188-3.964.38-6.609.755-4.156 3.588-10.765 5.667-15.109 1.697-3.402 2.828-7.178 5.473-8.88 2.833-1.886 7.932-3.022 11.333-2.074 3.214 1.131 6.422 5.099 8.12 8.307 1.891 3.213 2.834 6.989 2.459 10.765-.568 4.724-3.401 12.088-6.235 14.735-1.885 1.697-4.718 2.453-6.989 2.265-2.265 0-5.099-1.13-6.797-2.833-1.891-1.885-2.834-5.855-3.022-9.068-.193-3.588 1.131-8.307 2.266-10.953.942-1.891 1.697-3.022 3.021-4.156 1.136-.943 2.645-1.886 4.344-2.079 2.079-.375 5.292 0 7.364.948 2.079 1.131 3.969 3.776 4.724 5.667.755 1.697.568 4.906.568 4.906" class="B"/></mask><g mask="url(#G)" class="C"><path d="M329.036 135.339h48.921v55.224h-48.921v-55.224z"/></g></g><mask id="H" maskUnits="userSpaceOnUse" x="214" y="143" width="45" height="41"><path d="M214.188 143h44.713v40.14h-44.713V143z" class="B"/></mask><g mask="url(#H)"><mask id="I" maskUnits="userSpaceOnUse" x="214" y="143" width="45" height="41"><path d="M229.349 143.041c23.724 6.954 27.719 12.255 28.787 16.563 1.068 3.64.797 8.281-.265 11.593-1.334 3.312-3.47 7.287-6.131 8.943-3.469 1.984-10.131 2.979-13.86.995-3.469-2.323-7.464-8.948-8.265-13.583-.531-4.969 1.598-12.916 4.53-16.229 2.932-3.646 9.063-5.636 13.063-4.64s9.063 6.297 10.661 10.932c1.334 4.636.531 12.917-1.598 16.896-2.402 4.302-7.464 7.286-12.26 8.281-5.599.989-14.396-.667-19.459-3.979-4.265-2.645-8.531-6.953-9.864-11.921-1.068-4.64 0-12.588 2.401-16.563s12.26-7.288 12.26-7.288z" class="B"/></mask><g mask="url(#I)" class="C"><path d="M204.027 129.787h65.036v66.306h-65.036v-66.306z"/></g></g><mask id="J" maskUnits="userSpaceOnUse" x="106" y="143" width="59" height="61"><path d="M106.203 143.609h58.036v59.766h-58.036v-59.766z" class="B"/></mask><g mask="url(#J)"><mask id="K" maskUnits="userSpaceOnUse" x="106" y="143" width="59" height="61"><path d="M164.224 164.943c0 18.5-2.224 23.312-4.812 27.01-2.959 3.334-7.031 6.662-11.469 8.511-4.074 1.855-9.255 2.964-13.694 2.593a34.58 34.58 0 0 1-13.693-4.073c-3.697-2.588-7.401-6.287-9.989-9.989-2.224-4.068-3.703-8.88-4.074-13.694-.369-4.437.74-9.62 2.594-14.062 1.849-4.068 5.177-8.14 8.51-11.099 3.698-2.588 8.511-4.812 12.948-5.552 4.443-1.109 9.995-.74 14.063.74 4.443 1.484 12.213 7.401 12.213 7.401" class="B"/></mask><g mask="url(#K)" class="C"><path d="M91.693 129.787h88.443v88.442H91.693v-88.442z"/></g></g><mask id="L" maskUnits="userSpaceOnUse" x="110" y="140" width="52" height="57"><path d="M110.64 140.323h50.531v55.708H110.64v-55.708z" class="B"/></mask><g mask="url(#L)" class="B"><path d="M148.817 145.469c-.046.022-.093.031-.145.031-.479-.016-.953-.052-1.427-.12l-.36-.235s-.77-.12-1.068 0-1.13.536-1.13.536c-.374-.103-.753-.183-1.136-.24-.319-.052-.623-.173-.891-.354h-.833l-1.011-.536a5.66 5.66 0 0 1-.719-.416l-1.01-.063-1.011.776.12.713-.593.771s-1.194-.833-1.49-.891-.953-.12-.953-.12-.297-.536-.479-.713c-.139-.126-.299-.227-.473-.297 0 0-2.083-.178-2.323-.416s-.234-.063-.593-.536-.593-.656-.297-.714.713-.12.713-.416-.531-.24-.473-.536l.12-.536s.53.12.417-.177-.656-.12-.656-.12 0-.593-.355-.536-.421.303-.953.36-.416-.177-1.136-.057-.828.297-1.131.234a2.36 2.36 0 0 1-.53-.177l-1.97.297c-.833.12-1.546.714-1.546.714s-.474-.178-.651 0-.833.896-.953.713-.656-.297-.656-.297l-.954.062-.416-.062-.24-.355s-.416-.063-.65.235-.536 1.073-.536 1.073l-.656.536-.771.057-.776 1.011s.12 1.729-.177 2.027-1.787 1.369-2.146 1.489-1.426 1.787-1.426 1.787l-.178.77-.593.36-.896 1.902v.656s.656.297.656.536-.297.593-.297.593.536.656.473.833-.24.536-.24.536l-.057.834c0 .24-.714 1.01-.714 1.01s.474.834.418 1.131a2.68 2.68 0 0 0-.058.536l.355.417.953 1.251c.178.183.714.593.714.593l.656.776.234.656.954.714.417.536.713.417a2.52 2.52 0 0 0 1.136.833c.714.235 1.131.12 1.131.12a2.99 2.99 0 0 1 1.068-.478c.599-.12 2.323.12 2.323.12h.713c.281.026.557-.063.776-.24l.833-.656s.834-.298 1.484-.298c.401.001.801.041 1.194.12l.833.536.177.714a.58.58 0 0 0 .594 0c.36-.178 1.666-.12 1.666-.12l.656.598s.36 1.307.183 1.307-.303.24-.303.24l.063.953-.599.651.12.536s.599.833.719 1.131 1.245 1.13 1.245 1.13l.303.536.177.714v.417l.776 1.432-.125.651s.599 1.312.541 1.609c-.036.177-.036.36 0 .536l-1.193 1.604a8.15 8.15 0 0 0-.177 1.547V183l1.781 2.797.063 2.027.473 1.661c.12.303 1.193 1.37 1.193 1.37l.298 1.073.24.776s.593.593.593.891-.36.833-.36.833l.536.891.953.713s1.251-.531 1.61-.531l2.197-.062.719-.178.833-.177s2.437-2.083 2.615-2.563c.161-.374.364-.734.598-1.068l.828-.656.183-1.073.177-.416-.24-.473.36-.536 1.49-.776.114-1.484-.354-1.787c0-.297.417-.416.417-.416s1.011-1.193 1.427-1.369 1.969-1.307 2.202-1.547.063-1.427.063-1.427l-.12-2.442-.599-1.074-.114-1.426-.36-.714.062-.89.474-.656s.36-.834.656-1.131l1.666-1.547 2.318-2.145c.297-.235 2.084-2.916 2.38-3.333s.833-1.724 1.073-2.083c.172-.28.313-.579.417-.891l-.12-.713-.65.12c-.36.057-1.312.355-1.787.417s-1.547.058-1.547.058l-.713.536-.656-.656-.599.12-.297-.474.24-.36-.536-1.068-1.249-.953-.714-.36-.12-.651-1.188-1.969-.536-.297.12-1.787-.478-.656-.776-.416.125-.771-1.312-1.844c-.12-.24-.063-1.249-.063-1.249l.36-.183.312-.776.047-1.464-.219-.296zm12.058 35.714l-.807.182-.531 2.943c-.27 1.251-1.161 3.927-1.161 3.927l-.984.36-1.068-.088s-.713-.626-.625-1.162-.626-.978-.626-.978l-.182-.896s.896-.626 1.25-1.162-.53-2.14-.53-2.14.442-.89.713-.89 1.964-1.074 1.964-1.074.536-.802.891-.984.713-.978.713-.978c.803-.183.984 2.942.984 2.942"/></g><mask id="M" maskUnits="userSpaceOnUse" x="472" y="64" width="39" height="40"><path d="M472.584 64.333h38.333v39.448h-38.333V64.333z" class="B"/></mask><g mask="url(#M)"><mask id="N" maskUnits="userSpaceOnUse" x="472" y="64" width="39" height="40"><path d="M510.901 78.396c0 12.224-1.464 15.401-3.177 17.844-1.953 2.197-4.64 4.401-7.579 5.62-2.688 1.224-6.109 1.959-9.041 1.713-3.177-.245-6.355-1.224-9.041-2.693-2.55-1.817-4.78-4.045-6.599-6.593-1.512-2.797-2.428-5.878-2.688-9.047-.245-2.932.489-6.355 1.708-9.287 1.224-2.688 3.421-5.375 5.625-7.333 2.443-1.708 5.62-3.177 8.552-3.661 2.932-.735 6.599-.489 9.287.484 2.932.979 8.068 4.891 8.068 4.891" class="B"/></mask><g mask="url(#N)" class="C"><path d="M463 55.183h58.412v58.412H463V55.183z"/></g></g><mask id="O" maskUnits="userSpaceOnUse" x="308" y="143" width="59" height="61"><path d="M308.651 143.609h58.036v59.766h-58.036v-59.766z" class="B"/></mask><g mask="url(#O)"><mask id="P" maskUnits="userSpaceOnUse" x="308" y="143" width="59" height="61"><path d="M366.667 164.943c0 18.5-2.219 23.312-4.807 27.01-2.964 3.334-7.031 6.662-11.473 8.511-4.068 1.855-9.25 2.964-13.688 2.593a34.56 34.56 0 0 1-13.694-4.073 42.52 42.52 0 0 1-9.989-9.989c-2.224-4.068-3.703-8.88-4.073-13.694-.37-4.437.74-9.62 2.588-14.062 1.854-4.068 5.182-8.14 8.51-11.099 3.703-2.588 8.511-4.812 12.954-5.552 4.442-1.109 9.989-.74 14.062.74 4.438 1.484 12.208 7.401 12.208 7.401" class="B"/></mask><g mask="url(#P)" class="C"><path d="M294.14 129.787h88.437v88.442H294.14v-88.442z"/></g></g><mask id="Q" maskUnits="userSpaceOnUse" x="313" y="140" width="51" height="57"><path d="M313.088 140.323h50.531v55.708h-50.531v-55.708z" class="B"/></mask><g mask="url(#Q)" class="B"><path d="M351.265 145.469c-.046.022-.093.031-.145.031-.479-.016-.953-.052-1.427-.12l-.36-.235s-.77-.12-1.073 0-1.131.536-1.131.536c-.369-.104-.749-.182-1.13-.24a2.21 2.21 0 0 1-.891-.354h-.833l-1.011-.536c-.251-.118-.491-.258-.719-.416l-1.01-.063-1.011.776.12.713-.593.771s-1.194-.833-1.49-.891-.953-.12-.953-.12-.297-.536-.479-.713a1.63 1.63 0 0 0-.473-.297s-2.083-.178-2.323-.416-.234-.063-.593-.536-.593-.656-.297-.714.713-.12.713-.416-.536-.24-.473-.536l.114-.536s.536.12.422-.177-.656-.12-.656-.12 0-.593-.36-.536-.416.303-.948.36c-.542.057-.422-.177-1.136-.057s-.834.297-1.131.234a2.46 2.46 0 0 1-.536-.177l-1.964.297c-.833.12-1.547.714-1.547.714s-.473-.178-.656 0-.833.896-.953.713-.651-.297-.651-.297l-.953.062-.416-.062-.24-.355s-.416-.063-.651.235-.536 1.073-.536 1.073l-.656.536-.776.057-.77 1.011s.12 1.729-.178 2.027-1.786 1.369-2.145 1.489-1.427 1.787-1.427 1.787l-.177.77-.599.36-.89 1.902v.656s.656.297.656.536-.303.593-.303.593.536.656.479.833-.24.536-.24.536l-.058.834c0 .24-.713 1.01-.713 1.01s.473.834.417 1.131a3.17 3.17 0 0 0-.062.536l.36.417.953 1.251c.177.183.713.593.713.593l.656.776.235.656.953.714.418.536.713.417a2.53 2.53 0 0 0 1.131.833c.718.235 1.13.12 1.13.12a3.01 3.01 0 0 1 1.074-.478c.598-.12 2.322.12 2.322.12h.714a1.05 1.05 0 0 0 .409-.044c.132-.041.255-.108.361-.196l.834-.656s.838-.298 1.489-.298c.401.001.8.041 1.193.12l.834.536.177.714a.58.58 0 0 0 .593 0c.36-.178 1.667-.12 1.667-.12l.656.598s.36 1.307.177 1.307-.297.24-.297.24l.057.953-.593.651.12.536s.593.833.713 1.131 1.251 1.13 1.251 1.13l.297.536.183.714v.417l.771 1.432-.12.651s.598 1.312.536 1.609c-.036.177-.036.36 0 .536l-1.188 1.604c-.11.511-.167 1.027-.183 1.547V183l1.787 2.797.062 2.027.474 1.661c.12.303 1.188 1.37 1.188 1.37l.302 1.073.235.776s.599.593.599.891-.36.833-.36.833l.536.891.953.713s1.251-.531 1.604-.531l2.203-.062.713-.178.833-.177s2.443-2.083 2.62-2.563c.163-.374.362-.732.594-1.068l.833-.656.183-1.073.177-.416-.24-.473.36-.536 1.484-.776.12-1.484-.355-1.787c0-.297.418-.416.418-.416s1.01-1.193 1.426-1.369 1.964-1.307 2.203-1.547.057-1.427.057-1.427l-.12-2.442-.593-1.074-.12-1.426-.355-.714.058-.89.478-.656s.355-.834.651-1.131l1.667-1.547 2.322-2.145c.298-.235 2.084-2.916 2.38-3.333s.834-1.724 1.074-2.083c.17-.281.31-.58.417-.891l-.12-.713-.656.12c-.355.057-1.307.355-1.787.417s-1.546.058-1.546.058l-.714.536-.65-.656-.599.12-.297-.474.24-.36-.536-1.068-1.25-.953-.713-.36-.12-.651-1.188-1.969-.536-.297.115-1.787-.474-.656-.776-.416.12-.771-1.306-1.844c-.12-.24-.063-1.249-.063-1.249l.36-.183.307-.776.052-1.464-.218-.296zm12.058 35.714l-.807.182-.536 2.943c-.265 1.251-1.156 3.927-1.156 3.927l-.984.36-1.073-.088s-.714-.626-.62-1.162-.631-.978-.631-.978l-.177-.896s.896-.626 1.25-1.162-.536-2.14-.536-2.14.448-.89.719-.89 1.964-1.074 1.964-1.074.531-.802.891-.984.713-.978.713-.978c.803-.183.984 2.942.984 2.942"/></g></svg>